<?xml version="1.0" encoding="utf-8"?>
<!-- Generator: Adobe Illustrator 22.0.1, SVG Export Plug-In . SVG Version: 6.00 Build 0)  -->
<svg version="1.1" id="Layer_1" xmlns="http://www.w3.org/2000/svg" xmlns:xlink="http://www.w3.org/1999/xlink" x="0px" y="0px"
	 viewBox="0 0 1600 1200" style="enable-background:new 0 0 1600 1200;" xml:space="preserve">
<style type="text/css">
	.st0{fill:#A15842;}
</style>
<title>wfh_4</title>
<g>
	<circle class="st0" cx="559.5" cy="575" r="7.5"/>
	<path class="st0" d="M284.5,876.5c23,0,41.8-13.8,42.5-31h-85c0,0.1,0,0.3,0,0.4v175.6h85v-176
		C326.3,862.7,307.5,876.5,284.5,876.5z"/>
	
		<ellipse transform="matrix(0.3528 -0.9357 0.9357 0.3528 -608.4391 734.8252)" class="st0" cx="227" cy="807.3" rx="10" ry="45.1"/>
	
		<ellipse transform="matrix(0.7987 -0.6017 0.6017 0.7987 -398.745 331.6188)" class="st0" cx="296.3" cy="761.8" rx="30.6" ry="7.7"/>
	<path class="st0" d="M236.2,770.9L236.2,770.9c15.1,5.3,31.7-2.6,37-17.7c2.9-8.2,2-17.2-2.5-24.6h0c-8.3-13.7-26.1-18.1-39.8-9.9
		c-13.7,8.3-18.1,26.1-9.9,39.8C224.5,764.3,229.8,768.7,236.2,770.9z"/>
	<path class="st0" d="M238.9,694.4c12.6,9.9,30.8,7.7,40.7-4.8c4.2-5.3,6.4-11.8,6.2-18.6c-0.3-16-13.6-28.7-29.6-28.4
		s-28.7,13.6-28.4,29.6C228,680.9,232.1,689,238.9,694.4z"/>
	<path class="st0" d="M326.6,720.4c6.6-1.5,12.4-5.2,16.6-10.5c9.8-12.6,7.6-30.9-5.1-40.7c-12.6-9.8-30.9-7.6-40.7,5.1
		c-5.3,6.8-7.3,15.7-5.4,24.1C295.5,714,311,723.8,326.6,720.4z"/>
	<path class="st0" d="M1407.9,985.7c1.3-6.4,1.8-13,1.5-19.2c0,0,0,0,0,0c-0.1-3.3-0.4-6.6-0.9-9.9c10.8-11.2,20.9-23.2,19.5-28.1
		c-2-6.8-26.9-6.9-41.1-6.5c-13.9-8.7-33.2-11.7-52.9-1.5c0,0-4-20-15-28c-10.3-7.5-21-8.2-29-5.2l-0.2,0.1c-4.7,1.9-7,7.2-5.1,11.9
		c0.5,1.3,1.3,2.4,2.3,3.4l14,12.8l-7,13.8c-4.8-4.3-10.1-7.9-15.8-10.8c-0.6-2.1-8-25.7-20.2-28.4v-57.9V652.8V533.7
		c0-44.7-36.2-80.9-80.9-80.9h-13.5c-8.7-20.1-31.4-30.3-45.6-30.3h-25c0,0,0.5-5,1.2-12.5c0.4-4.2,0.9-9.2,1.4-14.6
		c1.8-19.1,3.9-43.2,4.4-54.9c0.9-19.1-1-47.1-32-61c-29-13-56,7-56,7s-24.7-7.1-26,9c-1,12,14,17,14,17s-3,8-5,22
		c-0.3,1.9-0.6,3.8-0.9,5.5c0,0-9.1-0.5-10.1,3.5c-1.2,4.9,6.7,10.2,6.7,10.2c-3.1,11.2-5.7,19.8-1.7,29.8c3.5,8.8,11,19,35,16
		l-1.4,10.5h0l-1.6,12.5c0,0-35.2-0.7-60,15c-6.6,4.2-14.7,9.5-23.4,15.3h-24.7c-29.5,0-55.4,15.9-69.5,39.5c-13-3.6-29-8-43.4-11.8
		V219.3H354v302h313.2c1.3,6.6,3.8,13.3,6.8,17.2c4.8,6.2,9.7,3.4,10,4c4,9,13,5,13,5c4,9,15,6,15,6c8.4,8.4,16.8,0.3,17.9-0.9
		l14.4,9.9c3.6,2.5,8.6,1.6,11.1-2l9.1-13.2l10.2-14.7l-10.1,14.7c21.3,11,44,19,67.5,23.6v63.2c-15,5.6-29.4,11.8-41,18.4
		c-0.2,0.1-0.4,0.2-0.6,0.3h-84.5c-43.5,0-79,34.3-80.8,77.4h-57.7l20-113.7H580c-0.3-7.8-6.6-14-14.5-14c-2.3,0-4.5,0.6-6.5,1.5
		c-1.6-0.8-3.3-1.3-5.1-1.5v0c-3-7.4-11.5-11-18.9-7.9c-0.4,0.2-0.8,0.4-1.3,0.6c-1.1-5-5.5-8.7-10.8-8.7c-4.9,0-9,3.2-10.4,7.5
		c-2.6-0.8-5.5-0.8-8.3,0c-4.6,1.4-8,4.9-9.5,9.1c-1.4-0.4-2.8-0.6-4.3-0.6c-7.8,0-14.2,6.2-14.5,14h-7.7l20,113.7H352v44.6
		c-6.7,1.2-15,3.7-23.6,7.3c-19.2,8.2-32.8,19.1-30.6,24.4s19.6,2.9,38.8-5.2c5.7-2.4,10.9-5.1,15.4-7.8v169.7h47l-16.4,44.4
		c-0.4,1.2-0.7,2.4-0.7,3.6c0,5.8,4.7,10.5,10.5,10.5c3.7,0,7.1-1.9,9-5l32.5-53.6h162c0,0,0,0.1,0,0.1l29.1,13.6v44.9h268v0h97v0
		h268v0h105c2,0,3.9-0.1,5.8-0.3h57.2c3.5,0,5.6-0.8,6.5-2.2c0,0,0,0,0,0c0.1-0.2,0.3-0.5,0.4-0.8
		C1435.3,1011.6,1417.5,994.3,1407.9,985.7z M766,526.9L766,526.9l-12.5,18c-1,1.4-2.8,1.9-4.4,1.2c1.5,0.6,3.3,0.2,4.3-1.3
		L766,526.9c1.1-1.7,0.7-3.9-1-5c-0.4-0.3-0.8-0.4-1.2-0.5h0c0.4,0.1,0.8,0.3,1.2,0.5C766.7,523,767.2,525.2,766,526.9z"/>
	<polygon class="st0" points="1384.5,821.9 1368,832 1381.1,833.8 	"/>
	<polygon class="st0" points="1396.5,836 1381.1,833.8 1377.1,847.5 	"/>
	<polygon class="st0" points="1421.3,789 1404,790.4 1413.6,797.4 	"/>
	<polygon class="st0" points="1424.5,805.3 1413.6,797.4 1405,806.7 	"/>
</g>
</svg>
