<?xml version="1.0" encoding="utf-8"?>
<!-- Generator: Adobe Illustrator 22.0.1, SVG Export Plug-In . SVG Version: 6.00 Build 0)  -->
<svg version="1.1" id="Layer_1" xmlns="http://www.w3.org/2000/svg" xmlns:xlink="http://www.w3.org/1999/xlink" x="0px" y="0px"
	 viewBox="0 0 1600 1200" style="enable-background:new 0 0 1600 1200;" xml:space="preserve">
<style type="text/css">
	.st0{fill:#A15842;}
</style>
<title>wfh_2</title>
<g>
	<path class="st0" d="M1313.9,999.8c-5.3,0-10.1,2.4-13.9,6.1c-5.2-8.3-13.8-14.4-23.6-14.4c-2.4,0-4.7,0.4-6.9,1v-46l-53.2-54.1
		v-88l-53.2-54.1h-149.4l-1.9,1.9l-4.6-25.7c30.6-14.9,64.1-24.8,95.1-25.9l-101.6-10.4l-30.9-171.9c1.2-2,2.3-4.1,3.1-6.4h21.6
		l0,0.7c0.5-0.2,0.9-0.4,1.3-0.7h14.7l0,0.7c0.5-0.2,0.9-0.4,1.3-0.7h18.5c6.5,0,11.8-5.3,11.8-11.8v-0.2c0-6.5-5.3-11.8-11.8-11.8
		h-18.5c-0.7-0.4-1.5-0.8-2.3-1.1l0,1.1h-13.7c-0.7-0.4-1.5-0.8-2.3-1.1l0,1.1h-20.5c-0.6-2.4-1.4-4.8-2.4-7.3
		c-3.3-8.1-10.7-16.6-20.3-23.6c6.8-2.8,13.2-6.4,19-10.9c-1.4-2.9-3.1-5.6-5.2-8c2.1,2.4,3.9,5.1,5.2,8
		c27.8-20.8,49.8-57.8,60-77.4h6.7c4.1,0,8.9-3.4,10.5-7.5l1.6-3.9l-0.5,1.3c0,0,15.7,0.6,17-13.1c0,0,11.2-5.2,8.3-15.4
		c0,0,10.3-2.9,7.3-13.2c-0.2-0.6,5.8-1.8,5.5-10.3c-0.3-9.3-5.1-16.6-9.1-20.1l4.8-12c1.8-4.1-0.2-7.5-4.4-7.5h-8.1h-24.8l-0.7,1.8
		c-0.3,0.6-0.4,1.3-0.4,1.8c0-0.6,0.1-1.2,0.4-1.8l0.7-1.8h-8.1c-4.2,0-8.9,3.4-10.5,7.5l-9.3,22.9c0,0,0,0,0,0
		c-7.1,1.6-19.4,11.3-33,27.3c-16.5,19.4-48.6,57.8-48.6,57.8c-3.3-2.5-8.2-6.9-14-12.1l-46.1,59.3c4.6,3.6,9.4,7,14.3,10.2
		c-8.4,0-17.2,0.5-25.9,1.2c-2.4-9.8-7.3-17-8-17.4c17.9-22.6,3.6-42.3-5.6-51.4c9.3,9.1,23.6,28.8,5.6,51.4
		c1.8-1.9,3.4-4.1,4.6-6.4c0,0,5.9,5.4,15,12.4l46.1-59.3c-21.4-19.1-56.2-50.3-78.6-50.3h-14.1c0,0,0,0,0,0h-10.2l-0.8-12.8
		l-0.6-10.1c11.7,1.5,20.3-0.3,26.5-3.4c5.2-2.5,9.4-6.9,11.7-12.2c3.9-9.8,1.4-18.2-1.7-29.1c0,0,7.8-5.2,6.5-10
		c-1-3.9-9.8-3.4-9.8-3.4l-0.1-0.2l-29.4,10.7c0,0,0,0,0,0l29.4-10.7c-1.5-4-2.6-13.6-5.5-24l-17.5,7.6c-4.1,7.9-10,14.6-17.1,19.8
		c-3-3.1-6.3-5.8-9.9-8.1c-0.5-0.3-1-0.6-1.5-0.9h0c-0.5-0.3-1-0.6-1.5-0.8h-0.1c-0.5-0.2-1-0.5-1.5-0.7L795,232
		c-0.5-0.2-1-0.4-1.5-0.6h-0.1c-0.5-0.2-1-0.4-1.5-0.5h-0.2c-0.5-0.1-1-0.3-1.5-0.4H790c-0.5-0.1-1-0.2-1.5-0.2h-0.2
		c-0.5,0-1-0.1-1.5-0.1c-4.4-0.1-8.7,1.7-12.3,6.8c-1.7,2.3-2.8,5-3.2,7.8c0.4-2.8,1.4-5.6,3.1-7.9c3.6-5,7.9-6.8,12.3-6.8
		c0.5,0,1,0,1.5,0.1c-0.5,0-1-0.1-1.5-0.1h0h-0.1c-0.4-4.3-0.6-8.4-0.6-12.1c0,3.7,0.2,7.8,0.6,12.1h0.1c0.5,0,1,0,1.5,0.1h0.2
		c0.5,0.1,1,0.1,1.5,0.2h0.2c0.5,0.1,1,0.2,1.5,0.4h0.2c0.5,0.2,1,0.3,1.5,0.5h0.1c0.5,0.2,1,0.4,1.5,0.6l0.1,0
		c0.5,0.2,1,0.5,1.5,0.7h0.1c0.5,0.3,1,0.5,1.5,0.8h0c0.5,0.3,1,0.6,1.5,0.9l27-11.8l17.5-7.6c-5.2-18-16.2-38.2-46-35.5
		c-0.6-4.2-4.2-7.4-8.6-7.4c-4.8,0-8.7,3.9-8.7,8.7c0,0.9,0.1,1.7,0.4,2.5c-31.3,9.8-34.9,40.9-34,59.5c0.2,3.7,0.5,8.7,0.9,14.3
		l-0.1,0c0.7,10.4,1.7,23,2.7,34.2H648.9h-45.4c-31.1,0-56.4,25.2-56.4,56.4v172.8h101.8h41.4c-26,46.1-40.1,101-50,133.3l-62.3-6.3
		c14.8,7.2,32,17.6,52.4,32.3c-18.3,33.1-50.6,33.6-87.5,46c-21.7,7.3-31.7,19-36.3,28.5h-45.1l-106.8,66h0.2v83.1l-71.7,44.3v44
		c-9.6,0.1-18.1,6.1-23.3,14.4c-3.7-3.7-8.6-6.1-13.9-6.1c-11.8,0-21.5,12-21.5,23.8h30.1h12.8h44.9c0,0,0,0,0,0h70.1v0h33v0h29.8v0
		h33v0H508v0h33v0h143.2c0,0,0,0,0,0h16.5c0,16.2,13.1,29.3,29.3,29.3c16.2,0,29.3-13.1,29.3-29.3H896h33h90.9
		c0,16.2,13.1,29.3,29.3,29.3c16.2,0,29.3-13.1,29.3-29.3h16.5c0,0,0,0,0,0h106.7v0h33v0h12.8c0,0,0,0,0,0h44.9h12.8h30.1
		C1335.4,1011.8,1325.8,999.8,1313.9,999.8z M1004.7,326.9L1004.7,326.9l0.2-0.2l0,0L1004.7,326.9L1004.7,326.9L1004.7,326.9z
		 M1037.3,355.3L1037.3,355.3L1037.3,355.3c1-2.5-0.2-4.6-2.7-4.6h-22.9c-0.3,0-0.7,0.1-1,0.1c0.3-0.1,0.7-0.1,1.1-0.2h22.9
		C1037.1,350.8,1038.3,352.8,1037.3,355.3z M1021.7,298.7C1021.7,298.7,1021.7,298.7,1021.7,298.7L1021.7,298.7
		C1021.7,298.7,1021.7,298.7,1021.7,298.7z M1035.3,319.6C1035.3,319.6,1035.3,319.6,1035.3,319.6l-14.5,0c-2.4,0-4.1-1.2-4.8-3
		c0.7,1.8,2.4,2.9,4.8,2.9H1035.3z M1022.6,301.1c0.1,3-2.1,7.9-6.9,13.9c0,0.1,0,0.2,0,0.3c0-0.1,0-0.2,0-0.3
		c-0.7,0.9-1.5,1.8-2.3,2.7c0.8-0.9,1.5-1.8,2.3-2.8C1020.4,309,1022.7,304.2,1022.6,301.1z M770.4,755.9c0.5,8,4.4,17.2,13.6,26.9
		c9,9.6,22.5,14.4,38.1,15.9c-3.7,8.9-7.8,18.1-11.4,28.2c-14.7,41.4,10.1,58.9,10.1,58.9c0,0.2,0,0.3,0,0.5h-46.2v-33.9
		c-59.6-6.4-41.3-50.4-74.3-50.4h-58.7c-4.3,0-8.5,1.2-12.1,3.5l-7.3-4.5c33.5-21.2,63.1-42.2,85.3-64.6
		C733.8,751.4,754.7,756.4,770.4,755.9z M991.5,773.2l-30.8,31.4v81.6h-50.7c1.1-9.1,2.4-19.3,3.8-30.8c3.3-26.8,6.1-52.6,7.7-76.8
		c13.2-5.7,24.1-11.9,30.8-17.3c10-8.1,21.1-15.8,33-22.8L991.5,773.2z M916.2,681.8c-12.2-45.5-51-139.2-64.5-171.4
		c5.7-1.8,11.2-3.7,16.3-5.7c1.7,4.4,6,7.4,11,7.4h0.2h31.5c-1.1,9.8,0.4,19.4,13.4,14.8c0,0,6.4,8.2,15.6-0.9c0,0,3.2,4.5,8.3,4.3
		l28.3,157.6L916.2,681.8z M964,438.2c-0.5-0.5-1-1.1-1.5-1.6C963,437.2,963.5,437.7,964,438.2z M962.4,436.6
		c-0.5-0.5-1-0.9-1.5-1.4C961.4,435.7,961.9,436.1,962.4,436.6z M955.5,431.3c0.1,0,0.1,0.1,0.2,0.1
		C955.6,431.4,955.5,431.4,955.5,431.3z M958,432.9c0.2,0.1,0.3,0.2,0.5,0.4C958.3,433.2,958.1,433.1,958,432.9z M959.3,433.9
		c0.3,0.2,0.6,0.5,0.9,0.7C959.9,434.4,959.6,434.2,959.3,433.9z M816.9,272.7c1-0.5,5.3-3.3,5.2-12.3
		C822.3,269.4,818,272.2,816.9,272.7z M790,271c-8.9-3-18.9-13.2-19-24l0.1,0c0,0,0,0,0,0C771.2,257.8,781.2,268,790,271
		c-4,8.7-13.5,15.4-22.4,20.2h-0.1C776.5,286.4,785.9,279.7,790,271z M771.1,643.1c5.6,9,11.4,17.6,16.9,25.6l-30.5-3.1
		C762.1,658.3,766.6,650.7,771.1,643.1z"/>
	<path class="st0" d="M492.5,638.7l85.6,8.7C533.2,625.5,511.1,632.9,492.5,638.7z"/>
	<path class="st0" d="M467,631.3c8.7,0,30.7-23.8,30.7-44.5c-0.3-16.5-13.6-29.9-30.2-30.2c-17-0.3-31,13.2-31.3,30.2
		C436.2,607.5,458.2,631.3,467,631.3z"/>
	<path class="st0" d="M1138,699c8.7,0,30.7-23.8,30.7-44.5h0c0-17-13.7-30.7-30.7-30.7c-17,0-30.7,13.7-30.7,30.7
		C1107.3,675.2,1129.3,699,1138,699z"/>
	<path class="st0" d="M809.6,242.7c7.2-5.2,13-12,17.1-19.8l-27,11.8C803.3,236.9,806.6,239.6,809.6,242.7z"/>
	<path class="st0" d="M799.7,234.6c-0.5-0.3-1-0.6-1.5-0.9C798.7,234,799.2,234.3,799.7,234.6z"/>
</g>
</svg>
