<?xml version="1.0" encoding="utf-8"?>
<!-- Generator: Adobe Illustrator 22.0.1, SVG Export Plug-In . SVG Version: 6.00 Build 0)  -->
<svg version="1.1" id="Layer_1" xmlns="http://www.w3.org/2000/svg" xmlns:xlink="http://www.w3.org/1999/xlink" x="0px" y="0px"
	 viewBox="0 0 1263 1051.5" style="enable-background:new 0 0 1263 1051.5;" xml:space="preserve">
<style type="text/css">
	.st0{fill:#30242A;}
</style>
<title>wfh_1</title>
<g>
	<path class="st0" d="M666.9,263c1.4-0.3,3.9-0.7,7.2-1.1C670.8,262.3,668.3,262.7,666.9,263z"/>
	<path class="st0" d="M1168.1,1004.7c0-11.3-9.2-20.5-20.5-20.5H1129c0,0,0-0.1,0-0.1l-0.2,0.1h-1.8c0.7-1.9,1.3-4,1.7-6.2
		c0,0,0,0,0.1,0c0.3-1.7,0.5-3.5,0.6-5.3c0.2-4.4-3.3-8.1-7.7-8.3c-0.1,0-0.2,0-0.3,0h-6c0,0,0,0.1,0,0.1H1090
		c-2.6,0-5.1-1.2-6.7-3.2l-13.3-16.5c-8-10-21.1-14.3-33.5-11.2l-0.1-0.1l-26.7,6.8l0,0c0,0,0,0,0-0.1l27.1-6.9l-0.4,0.1l-26.7,6.8
		c-2-2.8-48.3-69-90.2-115.2c-2.4-2.7-5-5.2-7.7-7.7c-0.2-0.1-0.3-0.3-0.5-0.4c-0.4-0.4-0.8-0.7-1.2-1c-0.4-0.4-0.8-0.7-1.2-1
		c0,0,0,0,0,0V595.1H951V570H824.7c0,0,0-0.1,0-0.1h26.6l7-30.6h13.5c7.6,0,13.7-6.1,13.7-13.7v-0.9c0-7.7-6.1-13.8-13.7-13.8h-7
		l6.4-27.9c0-0.1,0.1-0.1,0.2-0.2H811c-20.4-52.1-71.4-110.5-96-130.3c3.7-3.2,6.9-6.7,9.9-10.6c8.1-10.5,17.4-27.4,12.9-46.6
		c2,8.3,1.4,16.2-0.7,23.4c3.4-11.9,2.9-25.9-7.1-40.5c-6.7-9.6-17.8-14.1-28.9-15.8c-17.7-2.9-35.4,0.8-35.4,0.8v0
		c0,0,0.4-0.1,1.2-0.2c-0.7,0.1-1.1,0.2-1.2,0.2c0.3-3.4,0.7-8.5,0.8-14.4c0.1-13.2-1.8-31-11.7-45.9c2.1,0.3,4.3,0.5,6.5,0.5
		c26.5,0,47.9-21.4,47.9-47.9c0-26.5-21.4-47.9-47.9-47.9c-25.5,0-46.3,19.9-47.8,45c-6.1-9.2-12.7-15.6-17.5-12.1
		c-8.4,6.2,5.1,24.5,18.9,37c-14.9-2.5-29.6,0.6-40.7,6.5c2.8-1.5,5.7-2.8,8.9-3.8c-9.1,3.1-16.8,8-21.8,13.6c0,0,0,0,0,0
		c-0.5,0.5-0.9,1-1.4,1.6c0,0,0,0,0,0c-0.4,0.5-0.8,1-1.1,1.5c-0.1,0.2-0.3,0.4-0.4,0.6c-0.2,0.3-0.5,0.7-0.7,1
		c-0.1,0.2-0.3,0.4-0.4,0.6c-0.2,0.4-0.4,0.7-0.6,1.1c-0.1,0.2-0.2,0.4-0.3,0.6c-0.2,0.4-0.5,0.9-0.7,1.4c-0.1,0.1-0.1,0.2-0.2,0.4
		c-0.3,0.6-0.6,1.2-0.8,1.8c-0.1,0.1-0.1,0.3-0.2,0.4c-0.2,0.5-0.4,1-0.6,1.5c-0.1,0.2-0.1,0.4-0.2,0.6c-0.2,0.5-0.3,0.9-0.5,1.4
		c-0.1,0.2-0.1,0.4-0.2,0.6c-0.2,0.5-0.3,1-0.5,1.6c0,0.1-0.1,0.3-0.1,0.4c-0.4,1.4-0.8,2.8-1.1,4.2c0,0.1-0.1,0.3-0.1,0.4
		c-0.1,0.6-0.3,1.2-0.4,1.9c0,0.1,0,0.2-0.1,0.3c-0.3,1.5-0.6,3.1-0.8,4.6c0,0,0,0,0,0c-0.5,3.4-0.9,6.8-1.2,10.3
		c-8.4,0.1-16.1,6.7-18,16.2c-2.1,10.7,4,20.8,13.6,22.7c-0.4,2.3-0.7,4.5-0.9,6.6c-15.5,3.3-37.3,17.8-38.2,42.3
		c-0.6,17.8,8.6,28.4,17.1,34.4c-24.7,16.5-54.9,51.3-76.3,78.2H332.8c-10,0-18.1,8.1-18.1,18.1c0,1.9,0.3,3.7,0.9,5.5l4.1,13
		l-0.3-0.9c-11.7,5.8-17.5,15.6-17.5,22.4c0,9.9,10.1,11.8,10.1,11.8s-0.3,0.5-0.7,1.2l-0.3,0.2c0.1,0,0.2-0.1,0.3-0.1
		c-1.5,3.2-4.2,11.7,6.2,16.1l-0.1,0c0,0,0,0,0.1,0c0,0,0,0,0,0c0,0,0,12.2,12.2,12.2c0,0-1.6,9.5,11.1,10.4c0.7,0,1.3,0.1,2,0.1
		l4.2,13.4h-0.1l1.1,3.4c0.2,0.7,0.5,1.4,0.8,2.1c0,0,0,0.1,0.1,0.1c0,0.1,0.1,0.1,0.1,0.2c2.5,5,7.7,8.2,13.5,8.2h-44.6
		c0-10.7-7.1-20-17.4-22.8l-26.7-7.3v-186c8.6-3.5,14.6-12,14.6-21.8c0-2.4-0.4-4.7-1-6.9l87.6-72.6l0,0c0,0,0,0,0,0l1-0.8
		c0.9,2.9,1.3,6,1,9.2l-2,29.2c-1,14.3,2.6,28.6,10.4,40.6l2.6,4l33-27.4c3.6,4.4,9.1,7.3,15.3,7.3c10.9,0,19.7-8.8,19.7-19.7
		c0-4.9-1.8-9.3-4.7-12.7l32.6-27.1l-3.4-3.2c-10.4-9.8-23.8-16-38-17.7l-29.2-3.3c-6.3-0.7-12.1-3.9-16.2-8.8l-8-9.7
		c-4.8-5.7-12.6-7.5-19.1-4.8l-4-4.8c-1.8-2.1-4.9-2.4-7-0.6l-0.2,0.2c-2.2,1.7-2.5,4.9-0.7,7l4,4.8c-3.7,5.9-3.5,13.8,1.3,19.5
		l2.5,3l-1,0.9l-0.1-0.2l0.1,0.2l-88.8,73.6c-3.3-1.8-7.1-2.8-11.2-2.8c-13,0-23.6,10.6-23.6,23.6c0,2.5,0.4,4.9,1.1,7.1l-62.8,52.1
		c-3.8,3.1-4.3,8.7-1.2,12.5l0.2,0.3c3.1,3.8,8.7,4.3,12.4,1.2l63-52.3c0.6,0.3,1.1,0.6,1.7,0.8v186.1l-26.6,7.3
		c-10.3,2.8-17.4,12.1-17.4,22.8h-35v25.1h42.3v99.1c-5.2,0.9-12.4,5.8-19.4,13.2c-0.1-11.8-3.2-20.6-8-21.2
		c-6.1-0.8-12.7,12.1-14.7,28.8c-0.6,4.8-0.8,9.6-0.4,14.3c0,0,0,0,0,0c0.6,7.9,2.6,13.9,5.6,16.1c0.1,0.1,0.2,0.2,0.4,0.3
		c-9.7,11.6-16.9,27.2-22.1,42.2c-1.2,1.6-1.7,2.9-1.3,4c-2.6,8.1-4.7,15.9-6.2,22.6h-14.4c-0.4-10.1-1.1-23-2.4-37
		c0.5-0.6,0.7-1.1,0.6-1.7c-0.1-0.5-0.4-0.9-0.9-1.3c-2.1-21.8-5.7-45.7-11.6-64.1c3.7-1.1,7.8-6.1,11.2-13.4
		c-0.2-0.1-0.3-0.3-0.5-0.4c0.2,0.2,0.5,0.3,0.7,0.5c2-4.2,3.5-8.6,4.7-13.1c4.1-16.3,2.7-30.7-3.3-32.2
		c-4.7-1.2-10.7,5.8-15.1,16.8c-5.3-13.3-13.1-22.1-18.3-20.4s-6.1,13.4-2.5,27.3c-10.1-6.1-19.1-8.2-22.1-4.4
		c-3.9,4.8,3.6,17.2,16.6,27.7c3.7,3,7.7,5.7,11.9,7.9c0,0,0,0,0,0c6.9,3.6,12.9,5.1,16.4,3.8l7.7,62.4c-8-1.7-24.6-1.2-43.6,1.7
		c-26.2,4-46.8,10.9-46.1,15.6c0.7,4.6,22.5,5.2,48.6,1.2c18.8-2.8,34.7-7.2,41.9-11.2l4.2,34.3H93.3c2.5,2.5,14.9,14.2,34.2,18.5
		c-19.2-4.4-31.7-15.9-34.2-18.5l11.2,20.8c6,11.2,4.3,24.9-4.1,34.3l-13.2,14.8c-4.4,4.9-8.2,10.3-11.5,16
		c14.6,1,27.1,10.6,32,24.3c0,0.1,0,0.1-0.1,0.2c-4.8-13.8-17.3-23.3-31.9-24.3c-8,14.2-12,30.3-11.6,46.6c0,0,0.1,0,0.1,0
		c0.5,23,9.8,45,26,61.3h104.2c13-13.2,21.6-30,24.7-48.1v48.2h24.6v-45.4l79.5,37.7c3.3,1.6,7.2,0.2,8.7-3.1
		c1.5-3.1,0.3-6.8-2.6-8.5l-2.8-1.6l0.3-0.3L243.7,948v0l83.2,39.3c12.3-15,35.8-46.5,59.1-94.1l-71.1-33.5l-21-9.9c0,0,0,0,0,0
		c0,0,0,0,0,0l21,9.9l0-0.1l71,33.1l11.7,5.5l3.3,1.5c0,0,15.6-20.2,23.7-46.6l0.1,0.1c0.6-1.9,1.2-3.8,1.7-5.8l-0.1-0.2
		c1.2-4.8,2.2-9.7,2.7-14.7c0.7-6.9,1.3-13.5,1.8-19.7l0.2-0.2c0.2-2.6,0.4-5.2,0.6-7.7l-0.2,0c1.9-25.2,3.4-44.6,12.7-58.6
		c0.9,15.1,2.3,31.9,4,50.8c3.9,43.7,9.1,77.7,11.1,103.3v0.1c0.1,1,0.2,2,0.2,3c0,0.1,0,0.2,0,0.3c2.1,31.3-1.3,49.5-19.4,57.7
		c-0.5,0.2-0.9,0.4-1.4,0.7c3.3-12.3,7.2-31.5-1-32.1c-8.2-0.5-10.2,27.8-10.8,38.4c-18.1,11.1-25.8,23.7-26.3,35.8
		c0,0.1,0,0.2,0,0.3c0,0.3,0,0.7,0,1c0,1,0,2,0.1,2.9h0.1H550c0.4,0,0.7,0,1.1-0.1h0c3-0.5,5.3-3.2,5.3-6.3c0,0,0,0,0,0c0,0,0,0,0,0
		c0-3.5-2.9-6.4-6.4-6.3c0,0,0,0,0,0h-2.5c3.5-11.6,8.3-31.6,10.8-62.1h39.3l-11,65.2c-0.8,4.5,2.3,8.8,6.8,9.6
		c0.5,0.1,0.9,0.1,1.4,0.1c3.9,0,7.3-2.7,8.1-6.6l14.8-68.3h18.9l14.8,68.3c0.8,3.8,4.2,6.6,8.1,6.6c4.6,0,8.3-3.7,8.3-8.3
		c0-0.5,0-1-0.1-1.4l-11-65.2h114l14.8,68.3c0.3,1.2,0.8,2.3,1.5,3.2l0.7,3.4h46.1v-7c0-9.4-7.6-17-17-17c0,0,23.1-17.3,37.1-34.3
		c0,0,11.5,14,29.9,21v37.3h24.6v-33.6c1.2-0.1,2.5-0.2,3.7-0.4l2.5,12c2.6,12.8,13.9,22.1,27.1,22.1h111.8c3.2,0,6.3,0,9.3-0.1h105
		V1004.7z M784.8,814.3c-4.1,4.3-7.8,9.2-11.1,14.7l-13.1-77.7c1.9-0.9,3.8-1.9,5.6-3C780.9,770.1,784.7,796.2,784.8,814.3z
		 M572.5,220.3C572.5,220.3,572.5,220.3,572.5,220.3c-0.9,0.2-9.2,2-17,2C563.7,222.3,572.5,220.3,572.5,220.3z M714.1,266
		c0.6,0.3,1.2,0.5,1.8,0.8C715.4,266.5,714.8,266.2,714.1,266z M645.9,251.1c-3.7-19.3-26.1-19.8-38.7-7c0,0,0,0-0.1,0
		C619.9,231.3,642.3,231.7,645.9,251.1z M534.2,469.9l13.9,39.8l-16.4,45.6l-18.7-58.9C525.2,482.9,533.2,471.3,534.2,469.9z
		 M871.7,518.9c3.2,0,5.7,2.6,5.7,5.7v0.9c0,3.2-2.6,5.7-5.7,5.7h-11.6l2.8-12.3H871.7z M702.2,483c0.7-6.5,1.4-13.3,2-20.2l16.7,23
		C714.5,484.7,708.2,483.8,702.2,483z M716.7,267.1c0.4,0.2,0.8,0.4,1.2,0.6C717.5,267.5,717.1,267.3,716.7,267.1z M724.9,272.6
		c0.1,0.1,0.2,0.2,0.3,0.3C725.1,272.8,725,272.7,724.9,272.6z M719,268.4c0.3,0.1,0.5,0.3,0.7,0.4
		C719.5,268.7,719.3,268.5,719,268.4z M721.2,269.7c0.2,0.1,0.4,0.3,0.6,0.4C721.6,270,721.4,269.8,721.2,269.7z M723.2,271.2
		c0.1,0.1,0.2,0.2,0.4,0.3C723.4,271.4,723.3,271.3,723.2,271.2z M737.2,293.2c0.2,0.5,0.3,1.1,0.4,1.6
		C737.5,294.3,737.3,293.7,737.2,293.2z M731.6,280.8c0.2,0.3,0.3,0.5,0.5,0.8C731.9,281.3,731.8,281.1,731.6,280.8z M733.1,283.4
		c0.2,0.3,0.4,0.7,0.5,1C733.5,284.1,733.3,283.7,733.1,283.4z M734.4,285.9c0.2,0.4,0.4,0.8,0.5,1.2
		C734.8,286.7,734.6,286.3,734.4,285.9z M735.5,288.4c0.2,0.4,0.3,0.9,0.5,1.3C735.8,289.3,735.7,288.8,735.5,288.4z M736.4,290.8
		c0.2,0.5,0.3,0.9,0.5,1.4C736.8,291.8,736.6,291.3,736.4,290.8z M727,274.6c-0.1-0.1-0.2-0.2-0.3-0.3
		C726.8,274.4,726.9,274.5,727,274.6z M728.6,276.4c-0.1-0.1-0.2-0.2-0.2-0.3C728.4,276.2,728.5,276.3,728.6,276.4z M702,262.5
		c-0.3-0.1-0.6-0.1-0.9-0.1C701.4,262.4,701.7,262.5,702,262.5z M713.7,265.8c-2.9-1.2-6-2.1-9.1-2.8
		C707.8,263.7,710.8,264.6,713.7,265.8z M704.7,263c-0.5-0.1-1.1-0.2-1.6-0.3C703.6,262.8,704.1,262.9,704.7,263z M572.4,184.8
		c0.5-0.3,1-0.6,1.5-0.8C573.4,184.3,572.9,184.6,572.4,184.8z M570.9,185.8c0.2-0.1,0.4-0.2,0.5-0.3
		C571.3,185.5,571.1,185.6,570.9,185.8z M219.1,717.7v3.3c-0.8,0.1-1.7,0.2-2.5,0.4C217.5,720.2,218.3,719,219.1,717.7z
		 M199.6,747.9c0.6-5.8-1.7-11.6-6.3-15.4c-0.2-0.2-0.4-0.4-0.7-0.5c2.9,2.1,5.1,5.1,6.3,8.7C199.7,743.1,199.9,745.6,199.6,747.9
		c4.6-0.5,9.1-1.5,13.6-2.9c2-0.6,4-1.4,5.9-2.1V759c-7.3,1.4-16.9,4.5-27.2,9c-8.7,3.8-16.4,8.1-22.2,12L183,746
		C186.1,748.1,192.2,748.8,199.6,747.9z M191.3,814.4h-35l8-20.4c7,0.2,20.4-3.4,34.9-9.8c7.7-3.4,14.6-7.1,20-10.5v140.4
		c-1.3,0.3-2.5,0.7-3.7,1.1c-1.8-5.1-4-10-6.6-14.7c-8.3,0.4-15.9,3.7-21.9,8.9c6-5.3,13.7-8.5,22-9c-3.2-5.7-7-11.1-11.4-16
		l-13.4-14.8c-8.4-9.5-10-23.2-4-34.3L191.3,814.4c-3.1,3.2-21.4,20.2-49,20.2c-0.9,0-1.7,0-2.6,0c0.8,0,1.7,0,2.6,0
		C169.9,834.6,188.2,817.6,191.3,814.4z M129.2,833.3c-0.5-0.1-1-0.2-1.5-0.3C128.2,833.1,128.7,833.2,129.2,833.3z M138.5,834.5
		c-0.4,0-0.9,0-1.3-0.1C137.7,834.4,138.1,834.5,138.5,834.5z M135.7,834.3c-0.3,0-0.6-0.1-0.9-0.1
		C135.1,834.2,135.4,834.2,135.7,834.3z M133.4,834c-0.3,0-0.7-0.1-1-0.1C132.7,833.9,133.1,833.9,133.4,834z M131.2,833.7
		c-0.4-0.1-0.8-0.1-1.2-0.2C130.4,833.5,130.8,833.6,131.2,833.7z M154.1,902.3c10.5,3.7,18.7,11.9,22.4,22.3c0,0.1,0,0.1-0.1,0.2
		c-6.6-19-27.4-29-46.4-22.4c-7.2,2.5-13.3,7.2-17.6,13.2C121.5,902.7,138.4,896.9,154.1,902.3z M110.9,917.8
		c-0.1,0.1-0.2,0.3-0.2,0.4C110.8,918.1,110.8,918,110.9,917.8z M112.2,915.8c-0.3,0.4-0.5,0.8-0.8,1.2
		C111.7,916.6,112,916.2,112.2,915.8z M243.7,933.6L243.7,933.6c14.4,2,36.3,3,36.4-7.1c0-4.9-6.5-6.6-14.6-6.7
		c8.2,0.1,14.8,1.8,14.8,6.7C280.1,936.7,258,935.7,243.7,933.6z M332.5,727.5l-0.1-0.2c-2.5,7.8-5.3,16.3-8.3,25.5l0.1,0
		c-1.4,4.4-2.9,8.9-4.5,13.6c-11.2,33.8-18.8,61.5-26,83.3l0.1,0c-0.4,1.2-0.8,2.3-1.2,3.5h0.2c0,0,0,0,0,0c0,0,0,0,0,0
		c-12.1,36.1-23.2,54.9-48,57.6c7.3-10.2,15.5-24.1,8.7-27.3c-2.8-1.3-6.3,1.5-9.8,6V595.1h220.5c-8.4,2.8-16.9,5.7-24.9,8.6l-0.1,0
		c-5.4,2-10.8,4.1-16.1,6.3c-4.8,2-9.2,4-13.1,5.9c-3.6,1.8-7,3.6-10.2,5.4c-2.3,1.3-4.6,2.6-6.7,3.8l0,0.1
		c-11.4,7-19.8,14-26.7,22.6l0,0c-0.2,0.3-0.4,0.5-0.6,0.8c-2.5,3.2-4.8,6.7-7,10.5c-1.4,2.2-2.5,4.2-3.2,5.7
		C348.5,680,341.2,701,332.5,727.5z M559.5,915.5c0.2-4.8,0.4-9.8,0.5-15.1h4.5h14c0,0,9.5-44-1-83.2c-8.4-31.5-16.3-43-22.3-59.3
		h43.4l16.1,74.2l-14,83.4H559.5z M621.8,915.5l5.5-25.5l5.5,25.5H621.8z M653.9,915.5l-14-83.4l16.1-74.2h75.5c0.4,0,0.9,0,1.3,0
		L767,915.5H653.9z M816.3,794.6c-10.3-35-22-47-35.1-58.8c1.1-1.2,2.1-2.3,3-3.6c1.1-1.4,2.2-2.9,3.2-4.5c0.7-1.1,1.4-2.2,2.1-3.3
		c0.5-0.9,1-1.8,1.5-2.7c2.3-4.5,4.2-9.3,5.5-14.4l16.1-62.9h0l10.2-40c0.8-3.1,1.4-6.3,1.9-9.4h59.4v204.5
		C862.3,789.8,837.8,787.6,816.3,794.6z"/>
	<ellipse transform="matrix(0.5947 -0.804 0.804 0.5947 -448.9339 420.9863)" class="st0" cx="193" cy="655.7" rx="21.9" ry="7.7"/>
	<path class="st0" d="M58,755.4c21.9,9.8,42.9,10.6,46.9,1.7s-10.6-24.2-32.5-34c4.9,2.8,8,7.6,8.8,12.8c-0.8-5.4-4.1-10-8.8-12.7
		L58,755.4C57.9,755.3,58,755.3,58,755.4L58,755.4z M62.5,756.2c0,0,0.1,0,0.1,0C62.6,756.2,62.6,756.2,62.5,756.2z M64,756.3
		c0.1,0,0.1,0,0.2,0C64.1,756.3,64.1,756.3,64,756.3z M65.5,756.2c0.1,0,0.3,0,0.4-0.1C65.8,756.1,65.6,756.2,65.5,756.2z M66.9,756
		c0.1,0,0.3,0,0.4-0.1C67.2,755.9,67,756,66.9,756z M68.6,755.6c0,0,0.1,0,0.1,0C68.7,755.6,68.6,755.6,68.6,755.6z M70,755.1
		c0,0,0.1,0,0.1,0C70.1,755.1,70,755.1,70,755.1z M79.2,747.2c-1.3,2.3-3,4.1-4.9,5.6c-1.7-1-2.9-2.4-3.6-4.1c0.7,1.6,2,3,3.7,4
		c4.9-3.6,7.6-9.5,7-15.5c0,0,0.1,0,0.1,0c0-0.2,0-0.4-0.1-0.7C81.7,740.1,81.1,743.8,79.2,747.2z M70.6,748.6
		c0-0.1-0.1-0.2-0.1-0.2C70.5,748.4,70.5,748.5,70.6,748.6z"/>
	<path class="st0" d="M441.1,155.4c35.3,0,64-28.7,64-64c0-6.8-1.1-13.3-3-19.4c6.1-4.4,10.1-11.5,10.1-19.6
		c0-13.3-10.8-24.1-24.1-24.1c-6.5,0-12.4,2.6-16.7,6.7c-9-4.9-19.3-7.6-30.3-7.6c-35.3,0-64,28.7-64,64
		C377.1,126.7,405.8,155.4,441.1,155.4z"/>
	<path class="st0" d="M810.5,131.4c7,5,15,6,22,2c6-3,9-10,4.6-16.3c-0.1-0.1-0.3-0.2-0.4-0.3c3.4-1.7,5.8-5.2,5.8-9.3
		c0-5.7-4.6-10.3-10.3-10.3s-10.3,4.6-10.3,10.3c0,0.5,0,0.9,0.1,1.4c-5.5-4-10-9.2-15.5-6.5C794.5,108.4,801.5,124.4,810.5,131.4z"
		/>
</g>
</svg>
