<?xml version="1.0" encoding="utf-8"?>
<!-- Generator: Adobe Illustrator 22.0.1, SVG Export Plug-In . SVG Version: 6.00 Build 0)  -->
<svg version="1.1" id="Layer_1" xmlns="http://www.w3.org/2000/svg" xmlns:xlink="http://www.w3.org/1999/xlink" x="0px" y="0px"
	 viewBox="0 0 1600 1200" style="enable-background:new 0 0 1600 1200;" xml:space="preserve">
<style type="text/css">
	.st0{fill:#30242A;}
</style>
<title>wfh_7</title>
<g>
	<path class="st0" d="M1228.7,545.6c-4.1,0-8.1,0.3-12.1,0.7c-1-5.6-1.9-12-2.4-20.6c4.8-16.2,8-33.3,8.9-50.9
		c1.9-34.5-25.2-52.2-45.7-52.2h-7.5l0,0.1l-22,0.2v-0.5l0.1,0c0.1-1.5,0.6-6,1.2-12.4v0l0.1-0.5h0c0.4-4.5,0.9-9.9,1.5-15.7
		c0,0,0,0,0,0c1.9-20.5,4.2-46.6,4.8-59.2c1-20.6-1-50.7-34.5-65.7c-31.2-14-60.3,7.5-60.3,7.5s-26.6-7.6-28,9.7
		c-1.1,12.9,15.1,18.3,15.1,18.3c0,0,0,0,0,0c0,0.1-3.2,8.7-5.4,23.7c-0.3,2.1-0.6,4.1-1,6c-0.6,2.9-9.8-0.6-10.8,3.7
		c-1.3,5.3,7.2,11,7.2,11c-3.3,12-6.1,21.3-1.8,32c3.8,9.5,11.9,20.5,37.7,17.2l-1.4,11.1h25.9l-0.1,0.2l-12.8,29l0,0l12.8-29
		l0.1-0.2h-25.9h-0.2l0,0.2l-1.7,13.2l0.2,0.2l0,0v0.1c0,0-44.9,1.6-122.3,28.6c0,0-4.3-19.8-9.9-42.9l-40.7,12.9v-0.1l40.7-12.9
		c-5.7-23.7-12.8-51-18-64.3c-6.6-16.9-18.7-36.4-25.2-30.8c-1.6,1.4-2.5,3.7-3,6.6l-12.3-27l-13.1-28.9l-28,12.7l13.1,28.9l4.3,9.5
		l0,0c-0.4,0-9.3,1.5-12.9,7.1c-5.7,8.9,1.2,15.2,1.2,15.2s-0.1,0-0.2,0.1l-0.7-0.2c0.2,0.1,0.3,0.2,0.5,0.3
		c-2.1,0.9-13.1,5.9-6.6,18c0,0-8.1,10.1,2,18.2c0,0-3.1,2.8-2.8,7.2h-8.2h-34.5v30.8h34.5h34.5h4.5c0,0.4,0.1,0.9,0.1,1.3h-4.5
		h-34.5h-34.5V444h34.5v30.8h-34.5v30.8h34.5v30.8h-34.5v30.8v30.8v30.8h-34.2c39.7-26.2,15.8-71.6,0.6-93.7v-21.9
		c0-2.6-2.1-4.7-4.7-4.7h-14.7c-18.2-24.5-47.6-61.5-69.8-73.7c-20.5-11.2-47.7-9.6-47.7-9.6l-1.8-10.9h0l-1.4-8.7
		c0,0,15.2,5.4,28.2-2.2c13-7.6,16.3-21.7,11.9-43.4c-2.6-12.9-2.5-28.8-4.7-43c-1.5-9.8-4.1-18.8-9.4-25.4
		c-10.3-12.9-34.9-22.4-58.7-15.5c13.7-11.8,28-30.5,19.6-36.6c-5.1-3.7-12.2,4.2-18.5,14.3C588.1,229,567.9,209,543,209
		c-25.2,0-45.6,20.4-45.6,45.6c0,25.2,20.4,45.6,45.6,45.6c4.4,0,8.7-0.6,12.7-1.8c-14.1,19.7-12.5,43.5-11.7,53.9
		c0,0-30.4-9.8-52.1,13c-12.8,13.2-18.1,32-14.1,50c0,0-40-1.1-47.8,35.8c-4,18.9,2.3,32.1,10.3,40.9l0,0c1.6,1.8,3.4,3.5,5.2,5
		c5.7-7.5,14.8-19.6,20.7-26.6c23.7-28.4,35.8-40.1,68-43.8v0c-32.2,3.7-44.3,15.4-68,43.8c-5.9,7.1-15,19.1-20.7,26.6l0.2,0.2
		c0,0-32.4,40.1-38.6,76.5l-0.1,0c-0.4,2.3-0.7,4.5-0.9,6.8c-13.1,18.7-18.6,42.9-12.3,67.4l24.6,96c4.7,18.4,17.2,33.1,33.5,40.9
		l-22.5,134c-21.8,9.4-37.8,19.4-39.1,20.3c0,0,0,0,0,0c0,0,0,0,0,0l-0.1,0.1c-10.9-11.8-24.4-26.2-51.7-25.3v0
		c-0.8,0-1.6,0.1-2.4,0.1c-28.9,1.9-46.6,39.2-51.3,47.6c0,0-17.2,4.6-30.6,10.7c-8.3,3.8-15.1,8.3-15.1,12.6c0,2.8,0.2,5.7,0.7,8.5
		c1.9,0.1,3.8-0.1,5.7-0.6c-1.9,0.5-3.8,0.7-5.7,0.6c0.3,1.7,0.7,3.3,1.2,4.9l-16.9,0.2c-11.3,0-20.5,9.2-20.5,20.5v6.9h93.9
		c1,0,2.1,0,3.1,0H368h43h0h153.6c0,0,0,0,0,0h61.6c4.6-4.2-2-9.8-12.9-15.6l-9.3-55.4h38.8c1.8,11.1,3.8,22,5.7,31.7
		c18.3,1,28.8,11,34.4,19.6c-5.7-8.6-16.1-18.5-34.4-19.5c4.3,22.7,8.1,39.3,8.1,39.3h134.8c0,0,0,0,0,0h75.4
		c0.7-7.6-1.6-15.7-7.9-23.4c4.5-5.7,9.9-13,15.9-21.8c2-2.9,4-5.9,6-9.1l-46.7-22.1l46.7,22.1c10.5-16.4,20.1-33.5,28.7-51
		L823.2,881c-3.1,9.4-6.1,17.5-9.3,24.5c0.7-6.1,1.5-12.6,2.3-19.7c-1.4-2.4-3.3-4.3-5.5-5.7c2.2,1.4,4.1,3.3,5.5,5.7
		c1.6-13.8,3.4-29.5,5-47.3c9.2-102.8,16.1-133-36.9-163.3l-1.5-0.9l-1.7-0.9c-7.9-4.3-15.9-8.4-23.6-12.2
		c-5.8-2.8-11.6-5.6-17.4-8.3h168.7c-4.5,7.4-6.9,14.5-0.8,15.9c8.4,1.9,25.2-14.9,25.2-14.9s-3.3,7.2-4.8,14.5
		c-43.2,24.6-50.7,43.3-80.5,133.9c-10.7,32.1-17.8,58.3-24.6,78.7l86.2,39.4l0.1-0.2l14,6.5c0,0,22.6-29.4,26.2-62.7
		c2.4-21.8,2.8-40,5.3-54.9c0.8,9.1,1.7,18.8,2.7,29.4c3.3,37.3,7.5,65.5,9.4,86.7h0c0.8,7.8,1.1,15.6,0.9,23.3
		c-0.5,12.3-3.2,21-9.7,27.2c-2.8,2.6-6,4.7-9.4,6.2c-2.3,1-4.4,2.1-6.4,3.2c7,4.5,14,14.7,14,14.7c3.2-0.6,6.2-1.7,9.1-3l0,0
		c-2.9,1.4-6,2.4-9.1,3c0,0-7-10.2-14-14.7c-0.7,0.4-1.5,0.8-2.2,1.2c-15.2,8.7-21.6,18.6-23.5,28.4h0c-0.7,3.6-0.8,7.3-0.5,11
		h128.6c1.6-3.5,3-7.2,4.1-11h0c2.1-7.1,3.9-14.2,5.3-21.5c1.3-6.7,2.5-14.4,3.6-23.3l-51.1-0.3h-6.4c-3.4,0-6.7,1.6-8.8,4.3
		c-0.4,0.5-0.9,1.1-1.4,1.7c0.5-0.6,1-1.2,1.4-1.7c2.1-2.7,5.4-4.3,8.8-4.3h6.4c0,0,0,0,0,0l51,0.3c0.6-4.7,1.1-9.8,1.5-15.1h38.6
		l-10.2,60.9c-0.7,4.2,2.2,8.2,6.5,8.9c0.4,0.1,0.8,0.1,1.2,0.1c3.7,0,6.8-2.5,7.6-6.1l13.9-63.8h17.5l13.9,63.8
		c0.8,3.6,3.9,6.1,7.6,6.1c4.3,0,7.8-3.5,7.8-7.8c0-0.4,0-0.8-0.1-1.2l-10.2-60.9h106.4l13.9,63.8c0.8,3.6,3.9,6.1,7.6,6.1
		c4.3,0,7.8-3.5,7.8-7.7c0-0.4,0-0.8-0.1-1.3l-38.8-231c16.3-7.8,28.8-22.5,33.5-40.9l24.6-96C1321.3,596,1282.2,545.6,1228.7,545.6
		z M679.1,878.2c0.1,0,0.2,0,0.2,0.1c-0.3-0.1-0.5-0.1-0.8-0.2C678.7,878.1,678.9,878.1,679.1,878.2z M677.6,877.9
		c-0.2,0-0.5-0.1-0.7-0.1C677.2,877.8,677.4,877.9,677.6,877.9z M676,877.7c-0.3,0-0.5,0-0.8,0C675.5,877.7,675.8,877.7,676,877.7z
		 M691.1,890.2C691.1,890.2,691.1,890.2,691.1,890.2c-1.3-5.4-5.2-9.6-10.1-11.4C686,880.6,689.8,884.9,691.1,890.2z M680.9,878.7
		c-0.4-0.2-0.8-0.3-1.3-0.4C680,878.4,680.4,878.6,680.9,878.7z M764.7,878.8c0,0,0.1,0,0.1,0C764.7,878.7,764.7,878.7,764.7,878.8z
		 M766,878.3c0.1,0,0.2-0.1,0.3-0.1C766.2,878.3,766.1,878.3,766,878.3z M767.1,878.1c0.3-0.1,0.6-0.1,0.9-0.2
		C767.7,877.9,767.4,878,767.1,878.1z M768.7,877.8c0.3,0,0.6-0.1,0.9-0.1C769.3,877.8,769,877.8,768.7,877.8z M742.5,878.2
		c0.1,0,0.2,0,0.2,0.1c-0.3-0.1-0.5-0.1-0.8-0.2C742.1,878.1,742.3,878.1,742.5,878.2z M733.9,680.9c-1.4,0.4-2.8,0.8-4.3,1.2
		l-0.4,0.1c-1.6,0.5-3.3,1-4.9,1.5c-0.8,0.2-1.5,0.5-2.3,0.8c0,0,0,0,0,0c0.8-0.3,1.5-0.5,2.3-0.8c4.9-1.5,9.6-2.9,14.1-4
		c-1.2,0.3-2.4,0.6-3.7,1L733.9,680.9z M674.4,877.7c-0.3,0-0.6,0-0.9,0.1C673.9,877.8,674.2,877.8,674.4,877.7z M672.8,877.9
		c-0.3,0-0.6,0.1-0.9,0.2C672.3,878,672.5,877.9,672.8,877.9z M671.2,878.2c-0.1,0-0.2,0.1-0.3,0.1
		C671,878.3,671.1,878.3,671.2,878.2z M669.6,878.7c0,0-0.1,0-0.1,0C669.6,878.7,669.6,878.7,669.6,878.7z M657.4,885.4
		c0.9,1.5,1.6,3.1,2,4.7c0,0,0,0,0,0c-1.3-5.5-5.2-9.6-10.1-11.5C652.5,880,655.4,882.2,657.4,885.4z M716.9,881.1
		c2.9,2.2,5,5.4,5.9,9c0,0,0,0,0,0C721.9,886.5,719.8,883.3,716.9,881.1L716.9,881.1z M794.6,879.5c0.1-0.1,0.3-0.1,0.4-0.2
		C794.9,879.3,794.8,879.4,794.6,879.5z M796.1,878.8c0.2-0.1,0.3-0.1,0.5-0.2C796.4,878.7,796.2,878.8,796.1,878.8z M797.6,878.3
		c0.2-0.1,0.4-0.1,0.5-0.2C797.9,878.2,797.7,878.3,797.6,878.3z M799.1,878c0.2,0,0.4-0.1,0.6-0.1
		C799.5,877.9,799.3,877.9,799.1,878z M792.1,881.1c0.1,0,0.1-0.1,0.2-0.1C792.2,881,792.2,881,792.1,881.1z M793.3,880.2
		c0.1-0.1,0.2-0.1,0.3-0.2C793.5,880.1,793.4,880.2,793.3,880.2z M773.6,878.1c0.2,0,0.4,0.1,0.6,0.1c0.1,0,0.2,0,0.2,0.1
		C774.2,878.2,773.9,878.1,773.6,878.1z M770.4,877.7c0.3,0,0.5,0,0.8,0C770.9,877.7,770.6,877.7,770.4,877.7z M772,877.8
		c0.2,0,0.5,0,0.7,0.1C772.5,877.9,772.3,877.8,772,877.8z M770.5,674.5c0.3,0,0.5,0,0.8,0C771.1,674.5,770.8,674.5,770.5,674.5z
		 M773.8,674.4c0.1,0,0.3,0,0.4,0C774,674.4,773.9,674.4,773.8,674.4z M767.5,674.7c0.2,0,0.4,0,0.6,0
		C767.9,674.7,767.7,674.7,767.5,674.7z M760.3,675.5c0.4-0.1,0.9-0.1,1.3-0.2C761.2,675.4,760.8,675.4,760.3,675.5z M763.6,675.1
		c0.4,0,0.7-0.1,1.1-0.1C764.3,675,763.9,675.1,763.6,675.1z M754.5,890.2c-1.3-5.5-5.2-9.6-10.1-11.4
		C749.4,880.6,753.2,884.9,754.5,890.2C754.5,890.2,754.5,890.2,754.5,890.2z M743,878.3c0.4,0.1,0.8,0.3,1.3,0.4
		C743.9,878.6,743.4,878.4,743,878.3z M744.2,678.3c1.2-0.3,2.5-0.5,3.7-0.8C746.7,677.8,745.5,678.1,744.2,678.3z M749.2,677.3
		c0.6-0.1,1.2-0.2,1.9-0.3C750.4,677.1,749.8,677.2,749.2,677.3z M739.8,679.4c1.1-0.3,2.2-0.5,3.3-0.8
		C742,678.8,740.9,679.1,739.8,679.4z M674.2,559.4l-6.1,18.8l0.8,1.6c-2.5,1.1-5.7,2.5-9.2,4l-2.7-5.5l8.4-28.9L674.2,559.4z
		 M598.3,339.3c-11.9-13-33.7-13-36.9,5.4C564.7,326.3,586.4,326.3,598.3,339.3z M445.3,481.8L445.3,481.8l45.5-53.5L445.3,481.8z
		 M477.9,790.9c0.4,0,0.8,0,1.2,0h70.4l15.1,69.4l-11.2,66.9c-7.4-8.4-17.2-15.5-29.8-20.7c-14.5-6-31.9-5.7-49.4-2.2
		c-0.2,1.9-0.2,3.6-0.2,5.4c0-1.7,0.1-3.5,0.2-5.4c-7.5,1.5-15,3.5-22.2,5.9L477.9,790.9z M571.2,938l5.1-23.5l5.1,23.5H571.2z
		 M417.5,989.7L417.5,989.7c-1.8-4-5.4-10.9-9.8-19.1C412.2,978.8,415.7,985.7,417.5,989.7z M259,980.2c0.1-0.7,0-1.5-0.1-2.2
		C259,978.7,259,979.4,259,980.2z M258.5,982.4c-0.3,0.7-0.6,1.5-1,2.2c-0.4,0.7-0.9,1.4-1.5,2.1c0.6-0.7,1.1-1.3,1.5-2.1
		C257.9,983.8,258.2,983.1,258.5,982.4z M595.4,1002c-8.3-3.4-16.9-6.5-24.2-9.1c1.2-13.5,0.4-26.3-3-38h16.9L595.4,1002z
		 M601.2,938l-13.1-77.7l15.1-69.4H646c-5.3,20.5-11.9,45.5-11,89.2c0.1,5.2,0.3,10.5,0.6,16.2c0.7,12.5,2.4,27,4.5,41.6H601.2z
		 M649.2,878.7c-0.5-0.2-0.9-0.3-1.4-0.4C648.3,878.4,648.8,878.6,649.2,878.7z M647.7,878.3c-0.4-0.1-0.9-0.2-1.3-0.3
		C646.8,878,647.3,878.1,647.7,878.3z M646.1,877.9c-0.4-0.1-0.9-0.1-1.3-0.1C645.3,877.8,645.7,877.8,646.1,877.9z M644.5,877.7
		c-0.5,0-0.9,0-1.4,0C643.6,877.7,644.1,877.7,644.5,877.7z M643,877.7c-0.5,0-1,0.1-1.5,0.1C641.9,877.8,642.4,877.7,643,877.7z
		 M641.4,877.9c-0.5,0.1-1.1,0.2-1.6,0.3c-0.3,0.1-0.6,0.2-0.9,0.3C639.7,878.2,640.5,878,641.4,877.9z M638.3,878.6
		c-0.3,0.1-0.5,0.2-0.7,0.3C637.8,878.8,638.1,878.7,638.3,878.6z M636.9,879.2c-0.2,0.1-0.4,0.2-0.6,0.3
		C636.5,879.3,636.7,879.2,636.9,879.2z M687.5,1014.8h36l0,0L687.5,1014.8C687.5,1014.8,687.5,1014.8,687.5,1014.8z M743.1,990.7
		l-0.2,0.2l-0.1,0.1c-0.4,0.6-0.9,1.2-1.3,1.8l-0.1,0.2c-0.8,1.1-1.5,2.2-2.3,3.5c-0.1,0.2-0.3,0.4-0.4,0.7c-0.3,0.5-0.7,1.1-1,1.7
		c-0.2,0.3-0.4,0.7-0.5,1l-0.2,0.4l0,0l0.2-0.4c0.2-0.3,0.4-0.7,0.5-1c0.3-0.6,0.7-1.1,1-1.7c0.1-0.2,0.3-0.4,0.4-0.7
		c0.8-1.2,1.5-2.4,2.3-3.5l0.1-0.2c0.4-0.6,0.9-1.2,1.3-1.8c2.6-3.5,5.7-6.7,9.2-9.4c0,0,0,0,0,0
		C748.6,984.3,745.6,987.3,743.1,990.7z M754.5,982.9C754.5,982.9,754.5,982.9,754.5,982.9C754.6,982.9,754.6,982.9,754.5,982.9
		C754.6,982.9,754.6,982.9,754.5,982.9C754.5,982.9,754.5,982.9,754.5,982.9z M756.8,984c0.2,0.1,0.4,0.2,0.6,0.3
		C757.2,984.2,757,984.1,756.8,984z M759.1,985.1c0.2,0.1,0.4,0.2,0.5,0.3C759.5,985.3,759.3,985.2,759.1,985.1z M761.7,986.5
		C761.8,986.5,761.8,986.5,761.7,986.5C761.8,986.5,761.8,986.5,761.7,986.5z M763.9,987.7c0.1,0.1,0.3,0.1,0.4,0.2
		C764.1,987.8,764,987.7,763.9,987.7z M765.8,988.8c0.2,0.1,0.3,0.2,0.5,0.3C766.2,989,766,988.9,765.8,988.8z M767.9,990.1
		c0.1,0.1,0.2,0.1,0.3,0.2C768.1,990.2,768,990.1,767.9,990.1z M770,991.4c0.1,0.1,0.2,0.2,0.3,0.2
		C770.2,991.6,770.1,991.5,770,991.4z M771.7,992.6c0.2,0.1,0.3,0.2,0.5,0.4C772,992.8,771.8,992.7,771.7,992.6z M773.3,993.8
		c0.1,0.1,0.3,0.2,0.4,0.3C773.6,994,773.5,993.9,773.3,993.8z M775.2,995.3c0.1,0.1,0.2,0.2,0.4,0.3
		C775.5,995.5,775.4,995.4,775.2,995.3z M776.6,996.4c0.2,0.2,0.4,0.3,0.5,0.5C777,996.7,776.8,996.6,776.6,996.4z M778,997.6
		c0.2,0.2,0.4,0.3,0.5,0.5C778.4,997.9,778.2,997.8,778,997.6z M789.9,1014.8c0-0.1-0.1-0.2-0.1-0.3c-0.1-0.2-0.1-0.4-0.2-0.6
		c-0.1-0.2-0.2-0.4-0.2-0.6c-0.1-0.2-0.2-0.4-0.2-0.6c-0.1-0.4-0.3-0.7-0.5-1.1c-0.1-0.2-0.2-0.4-0.3-0.7c-0.1-0.2-0.2-0.4-0.3-0.5
		c-0.1-0.2-0.2-0.5-0.4-0.7c-0.1-0.2-0.2-0.4-0.3-0.5c-0.1-0.2-0.3-0.5-0.4-0.7c-0.1-0.2-0.2-0.4-0.3-0.5c-0.2-0.4-0.5-0.8-0.8-1.2
		c-0.1-0.2-0.2-0.3-0.3-0.5c-0.2-0.2-0.3-0.5-0.5-0.7c-0.1-0.2-0.3-0.4-0.4-0.5c-0.2-0.2-0.3-0.4-0.5-0.7c-0.2-0.2-0.3-0.4-0.5-0.6
		c-0.3-0.3-0.5-0.7-0.8-1c-0.2-0.2-0.3-0.4-0.5-0.6c-0.2-0.2-0.4-0.4-0.5-0.6c-0.2-0.2-0.4-0.4-0.6-0.6c-0.2-0.2-0.4-0.4-0.5-0.6
		c-0.2-0.3-0.5-0.5-0.7-0.7c-0.2-0.2-0.4-0.4-0.6-0.6c-0.2-0.1-0.3-0.3-0.5-0.4l0-0.1C784.6,1003.8,788.1,1009.3,789.9,1014.8
		l17.8,0c1.9-4.7,3.7-8.8,5.6-12.5l0,0c-1.9,3.7-3.7,7.8-5.6,12.5H789.9z M809.6,879.5c0.4,0.2,0.7,0.4,1.1,0.6
		C810.3,879.9,809.9,879.7,809.6,879.5z M809.2,879.3c-0.3-0.2-0.7-0.3-1-0.4C808.5,879,808.9,879.1,809.2,879.3z M806.2,878.2
		c-0.3-0.1-0.6-0.1-0.9-0.2c0.2,0,0.4,0.1,0.6,0.1C806,878.1,806.1,878.2,806.2,878.2z M807.7,878.7c-0.3-0.1-0.6-0.2-0.9-0.3
		C807.1,878.5,807.4,878.6,807.7,878.7z M802.9,877.7c-0.3,0-0.5,0-0.8,0C802.4,877.7,802.7,877.7,802.9,877.7z M804.6,877.9
		c-0.3,0-0.6-0.1-0.9-0.1C804,877.8,804.3,877.8,804.6,877.9z M800.6,877.7c0.2,0,0.5,0,0.7-0.1
		C801.1,877.7,800.8,877.7,800.6,877.7z M791.1,882C791,882,791,882,791.1,882C791,882,791,882,791.1,882z M786.2,890.2
		C786.2,890.2,786.2,890.2,786.2,890.2c-1.3-5.4-5.2-9.6-10.1-11.4C781.1,880.6,784.9,884.9,786.2,890.2z M774.7,878.3
		c0.4,0.1,0.8,0.3,1.3,0.4C775.6,878.6,775.1,878.4,774.7,878.3z M780.2,674.3c-0.2,0-0.4,0-0.6,0
		C779.8,674.3,780,674.3,780.2,674.3z M777.4,674.3c-0.2,0-0.3,0-0.5,0C777.1,674.3,777.2,674.3,777.4,674.3z M758.2,675.8
		c-0.7,0.1-1.4,0.2-2.1,0.3C756.8,676,757.5,675.9,758.2,675.8z M752.5,676.7c0.6-0.1,1.2-0.2,1.7-0.3
		C753.7,676.5,753.1,676.6,752.5,676.7z M1149.2,409.4L1149.2,409.4l0-0.2h0.1L1149.2,409.4L1149.2,409.4z M1058.2,305.6
		c4.4,0,8.2-0.6,10-1.2c0,0,0,0,0,0C1066.4,304.9,1062.5,305.5,1058.2,305.6z M1090.9,334.5C1090.9,334.5,1090.9,334.5,1090.9,334.5
		c0.4-0.5,11.8-12.5,23.4-13.8C1102.5,322,1090.9,334.5,1090.9,334.5z M1098.3,409.4l13.9,29l0,0L1098.3,409.4L1098.3,409.4z
		 M879.4,347.1c0,0,3.1,1.5,5.3,4.3C882.5,348.6,879.4,347.1,879.4,347.1L879.4,347.1z M884.7,343.6c0.3-0.3,0.5-0.7,0.6-1.1
		C885.2,342.8,884.9,343.2,884.7,343.6z M885.7,340.3c0-0.3-0.1-0.7-0.1-1c0-0.2-0.1-0.4-0.1-0.5c0,0.2,0.1,0.4,0.1,0.5
		C885.7,339.7,885.7,340,885.7,340.3z M860.9,326.1C860.9,326.2,860.9,326.2,860.9,326.1C860.9,326.2,860.9,326.2,860.9,326.1
		L860.9,326.1L860.9,326.1z M862.9,444h7.5c1.4,10.3,3.2,20.8,5.7,30.8h-13.2V444z M897.4,597.9v-30.8v-30.8h-34.5v-30.8H887
		c6.7,13.4,15.7,23.7,27.5,28c10.6,3.9,25.6,4.4,41.6,3.2v9.9c0,14.4,11.7,26.1,26.1,26.1s26.1-11.7,26.1-26.1v-18.2
		c16.1-3.6,27.5-6.9,27.5-6.9l6.3,50.3c-5.3,0.8-10.7,1.7-16.1,2.7l6,49c0,0-0.1,0-0.1,0l-6-49c-20.3,3.7-40.5,8.9-54.6,16
		c-17.4,8.7-31.8,22.8-44.6,38.2h-29.4V597.9z M1060.3,938c0.2-4.1,0.3-8.3,0.4-12.7h0c0-0.1,0-0.2,0-0.4h17.3
		c0,0,8.9-41.1-0.9-77.7c-8.1-30.1-15.6-40.6-21.1-56.3h42.8l15.1,69.4l-13.1,77.7H1060.3z M1120.5,938l5.1-23.5l5.1,23.5H1120.5z
		 M1256,938h-105.6l-13.1-77.7l15.1-69.3h70.4c0.4,0,0.8,0,1.2,0L1256,938z"/>
	<polygon class="st0" points="293.7,887.5 279.3,885.4 275.6,898.2 	"/>
	<polygon class="st0" points="282.5,874.3 267.1,883.7 279.3,885.4 	"/>
	<polygon class="st0" points="316.1,851.4 305.9,844 297.9,852.7 	"/>
	<polygon class="st0" points="313.1,836.2 296.9,837.5 305.9,844 	"/>
	<circle class="st0" cx="1348.4" cy="988.5" r="37.3"/>
</g>
</svg>
