<?xml version="1.0" encoding="utf-8"?>
<!-- Generator: Adobe Illustrator 22.0.1, SVG Export Plug-In . SVG Version: 6.00 Build 0)  -->
<svg version="1.1" id="Layer_1" xmlns="http://www.w3.org/2000/svg" xmlns:xlink="http://www.w3.org/1999/xlink" x="0px" y="0px"
	 viewBox="0 0 1600 1200" style="enable-background:new 0 0 1600 1200;" xml:space="preserve">
<style type="text/css">
	.st0{fill:#30242A;}
</style>
<title>wfh_5</title>
<g>
	<path class="st0" d="M1403,722.6h-158.2l-31.7-143.2h-0.2h-26.7l10-25.1c7.3,0.2,20.8-3.4,35.6-9.8c20.6-8.9,35.7-19.9,33.7-24.5
		c-2-4.6-20.3-1.2-40.9,7.7c-8.8,3.8-16.6,8-22.5,11.9l14.7-37c3.2,2.2,9.4,2.9,17,2.1c0-0.3,0.1-0.6,0.1-1c0,0.3,0,0.6-0.1,1
		c4.7-0.5,9.4-1.5,13.9-2.9c16.4-5,28.2-14,26.4-20c-1.4-4.7-10.8-6.2-22.8-4.2c8.7-11.8,12.3-23.3,8-26.9s-15,1.8-25.2,12.4
		c0-12.1-3.1-21.1-8-21.7c-6.2-0.8-13.1,12.3-15.3,29.4c-0.6,4.9-0.8,9.8-0.5,14.7c0,0,0,0,0,0c0.5,8.1,2.5,14.3,5.6,16.7
		c0.1,0.1,0.2,0.2,0.4,0.3c-10.4,12.3-18,29-23.4,44.7c-1.8,2.1-2.6,3.8-2,5.1c0.1,0.1,0.1,0.2,0.2,0.4c-3.2,10.2-5.5,19.6-7.1,26.8
		h-9.2c-0.7-10.8-2.1-27.9-4.5-46.7c0.4-0.6,0.6-1.2,0.5-1.7c-0.1-0.5-0.4-0.9-0.9-1.3c-3-22.2-7.6-46.3-14.4-65c0,0,0,0,0,0
		c3.7-1.2,7.8-6.5,11.1-14.2c-0.1-0.1-0.2-0.1-0.3-0.2c0.1,0.1,0.2,0.1,0.3,0.2c1.8-4.4,3.3-8.9,4.3-13.6
		c3.7-16.8,1.7-31.4-4.5-32.8c-4.8-1.1-10.8,6.4-14.9,17.7c-6-13.4-14.2-22.1-19.5-20.2c-5.3,2-5.8,14-1.5,28
		c-10.5-5.9-19.9-7.6-22.8-3.7c-3.8,5,4.3,17.5,18.1,27.7c3.9,2.9,8.1,5.5,12.5,7.7c0,0,0-0.1,0-0.1c0,0,0,0.1,0,0.1
		c7.2,3.4,13.4,4.7,17,3.4l10.3,63.4c-8.3-1.4-25.2-0.2-44.5,3.4c-26.6,5.1-47.4,13-46.5,17.7c0.9,4.7,23.2,4.4,49.8-0.7
		c19.1-3.6,35.2-8.7,42.4-13.1l7.1,43.9h-29.2h-0.2l-31.7,143.2h-38.3c34.3-44.6-24.2-133.8-37.6-150.6
		c-12.9-16.1-59-81.9-74.4-94.2c-9.9-7.9-15.9-1-15.9-1s-8.6-5.1-12.7-1.1c-6.3-5.5-18.7-13.7-32.8-22.4c1.9-4.4,2.9-9.1,2.9-14.2
		c0-8.3-2.8-16-7.5-22.1c3.3,1.8,7,2.8,11,2.8c12.9,0,23.3-10.4,23.3-23.3c0-12.9-10.4-23.3-23.3-23.3s-23.3,10.4-23.3,23.3
		c0,4.6,1.3,8.9,3.6,12.5c-5.7-3.8-12.6-6-20-6c-11.6,0-22,5.5-28.6,14c-2-1.2-3.7-2.1-5.2-3c-0.2-0.1-0.4-0.2-0.7-0.4v-39.2
		c0-108.6-88.1-196.7-196.7-196.7h-13.8c-108.6,0-196.7,88.1-196.7,196.7v321.5H411v29.7h14.9h54.3v11.6v32.5h-94.7
		c-5.6,0-10.2,4.6-10.2,10.2s4.6,10.2,10.2,10.2h25l-14.2,85H228.9c-10.1,0-15.7,8.2-12.4,18.3l44.3,136.4h0.2l1.8,5.5
		c2.4,7.4,9.3,12.4,17.1,12.4h97.6c0.1,0,0.2,0,0.2,0c0.1,0,0.2,0,0.2,0h21.9h0.1h177.5H631h76.3h51.8h42.3h261
		c50.7,0,68.8-30.1,72.1-65.9h183.9l34.3,61.5c1.6,2.8,4.5,4.5,7.7,4.5c4.9,0,8.8-3.9,8.8-8.8c0-0.9-0.1-1.9-0.4-2.8l-17.9-54.4
		h52.1V722.6z M1233.8,503.6c0-1.1,0-2.1-0.1-3.2C1233.8,501.4,1233.8,502.5,1233.8,503.6z M1233.2,498c-0.5-1.7-1.2-3.4-2.1-4.9
		c0.8,1.3,1.5,2.7,2,4.2C1233,497.6,1233.1,497.8,1233.2,498z M1233.6,500.2c-0.1-0.6-0.2-1.2-0.4-1.8
		C1233.4,498.9,1233.5,499.5,1233.6,500.2z M1231,493.1c-0.6-0.9-1.2-1.8-2-2.6C1229.8,491.3,1230.4,492.2,1231,493.1z
		 M1228.9,490.4c-0.4-0.5-0.9-0.9-1.4-1.3C1228,489.5,1228.5,489.9,1228.9,490.4z M1227.3,488.9c-0.2-0.2-0.5-0.4-0.7-0.6
		C1226.8,488.5,1227.1,488.7,1227.3,488.9z M1226.1,487.9c-0.3-0.2-0.5-0.4-0.8-0.5C1225.5,487.5,1225.8,487.7,1226.1,487.9z
		 M1221.1,485.5c-0.2,0-0.3-0.1-0.5-0.1C1220.8,485.4,1220.9,485.4,1221.1,485.5z M1224.3,486.8c-0.2-0.1-0.3-0.2-0.5-0.3
		C1224,486.7,1224.2,486.7,1224.3,486.8z M1222.7,486.1c-0.1-0.1-0.2-0.1-0.4-0.1C1222.5,486,1222.6,486,1222.7,486.1z M1219.2,485
		c-0.1,0-0.2,0-0.3,0C1219,485,1219.1,485,1219.2,485z M1217.7,484.7c-0.1,0-0.3,0-0.4,0C1217.4,484.7,1217.5,484.7,1217.7,484.7z
		 M1215.7,484.6c-0.1,0-0.2,0-0.3,0C1215.6,484.6,1215.7,484.6,1215.7,484.6z M1212.1,485c-0.1,0-0.1,0-0.2,0
		C1212,485,1212.1,485,1212.1,485z M1214,484.7c-0.1,0-0.1,0-0.2,0C1213.9,484.7,1213.9,484.7,1214,484.7z M1159.7,447.4
		c0.1,0,0.3,0.1,0.4,0.1c-0.2,0-0.4-0.1-0.6-0.1C1159.6,447.4,1159.7,447.4,1159.7,447.4z M1165.3,449.7c-0.2-0.1-0.4-0.2-0.5-0.3
		C1165,449.4,1165.1,449.6,1165.3,449.7z M1163.6,448.7c-0.2-0.1-0.4-0.2-0.6-0.2C1163.2,448.6,1163.4,448.6,1163.6,448.7z
		 M1161.9,448c-0.2-0.1-0.5-0.2-0.7-0.2C1161.4,447.9,1161.6,448,1161.9,448z M1156.6,447.1c-0.4,0-0.8,0-1.2,0
		C1155.9,447.1,1156.2,447.1,1156.6,447.1z M1158.2,447.2c-0.2,0-0.5-0.1-0.7-0.1C1157.7,447.1,1158,447.2,1158.2,447.2z
		 M1151.5,447.6c-0.5,0.1-0.9,0.3-1.3,0.4C1150.6,447.9,1151,447.7,1151.5,447.6z M1143.6,452c-0.1,0.1-0.2,0.2-0.4,0.3
		C1143.3,452.2,1143.5,452.1,1143.6,452z M1149.5,448.2c-0.3,0.1-0.5,0.2-0.7,0.3C1149,448.4,1149.3,448.3,1149.5,448.2z
		 M1148,448.9c-0.2,0.1-0.5,0.2-0.7,0.3C1147.6,449.1,1147.8,449,1148,448.9z M1146.3,449.8c-0.2,0.1-0.3,0.2-0.5,0.3
		C1146,450,1146.2,449.9,1146.3,449.8z M1144.9,450.9c-0.1,0.1-0.2,0.2-0.3,0.2C1144.7,451,1144.8,450.9,1144.9,450.9z
		 M1142.2,453.3c-0.1,0.1-0.2,0.2-0.2,0.3C1142.1,453.6,1142.2,453.4,1142.2,453.3z M1141.3,454.6c-0.1,0.1-0.2,0.3-0.3,0.4
		C1141.1,454.8,1141.2,454.7,1141.3,454.6z M1138.8,459.4c0,0.1-0.1,0.3-0.1,0.4C1138.7,459.7,1138.7,459.6,1138.8,459.4z
		 M1140.2,456.2c-0.1,0.1-0.2,0.3-0.2,0.4C1140.1,456.5,1140.2,456.3,1140.2,456.2z M1139.5,457.6c-0.1,0.1-0.1,0.3-0.2,0.4
		C1139.4,457.9,1139.4,457.8,1139.5,457.6z M1152,447.5c0.3-0.1,0.6-0.1,0.9-0.2C1152.6,447.4,1152.3,447.4,1152,447.5z
		 M1154.8,447.1c-0.5,0-1,0.1-1.5,0.2C1153.8,447.2,1154.3,447.1,1154.8,447.1z M883.9,618.6c-5.3-1.4-11.8-2.7-18.3-3.9
		c0,0,0,0,0,0c-6.4-1.2-12.9-2.3-18.4-3.2l-14.1,30.4v-0.1l14.1-30.2c-8.1-1.3-13.9-2.1-13.9-2.1c1.2-2.9,5.3-12.5,10.2-24.3
		c0,0,0,0,0.1,0c7.3-17.6,16.5-40.1,20.8-53c1.6-4.8,3-10.4,3.8-16.3c22.4,9.1,40.8,16.3,46.8,17.7c3.5,0.8,6.1,0.9,8,0.6
		c22.8,44.4,64.1,119.6,64.1,119.6S912.7,626,883.9,618.6z M538.8,695.7h24.7v0.2h-24.7V695.7z M598.2,695.7h16.5v0.2h-16.5V695.7z
		 M833.1,546.2v-0.1c7-5,11.9-12.5,7.1-22.6c0,0,0,0,0,0C845.1,533.6,840.2,541.2,833.1,546.2z M663.5,695.8v-0.2h29.2v0.2H663.5z
		 M697.5,695.7h15.2l-0.1,0.2h-15.1V695.7z M538.8,737.1L538.8,737.1l0-11.6H705c0.3,9.1,2.9,18.1,7.8,26.2l17.1,28.1h143.4
		l5.2-24.5c-18.2-6.3-29.8-16.9-35.9-29.8h0c6.1,12.9,17.7,23.4,35.8,29.7l7.4-35c0,0,30.9,11.6,64.5,19.8v87.3l-62.5-9.5
		c-7.6-3.9-14.7-6.8-20.9-8.4h0l6.3-29.8H729.9l18,29.6c-2.9,1.1-112,43.1-179.7,92.6l-18.7-112h25.3c5.6,0,10.2-4.6,10.2-10.2
		s-4.6-10.2-10.2-10.2h-36V737.1z M440.8,790h78.5l0.1,0.3h0l28,128.5c-7,6.3-13.1,12.6-18,18.9H466l-14.4-44.3
		c-3.3-10.1-14.1-18.3-24.3-18.3h-5.1L440.8,790z M404.1,1047c0,0,0.1,0,0.1,0C404.1,1046.9,404.1,1046.9,404.1,1047
		C404.1,1047,404.1,1047,404.1,1047z M400.1,1047.6c0.4,0,0.7,0,1.1-0.1C400.8,1047.6,400.4,1047.6,400.1,1047.6z M401.6,1047.5
		c0.3,0,0.5-0.1,0.8-0.1C402.1,1047.4,401.9,1047.5,401.6,1047.5z M402.9,1047.3c0.2-0.1,0.5-0.1,0.7-0.2
		C403.3,1047.2,403.1,1047.2,402.9,1047.3z M405.3,1046.5c0.1-0.1,0.3-0.1,0.4-0.2C405.6,1046.3,405.5,1046.4,405.3,1046.5z
		 M406.5,1045.9c0.2-0.1,0.4-0.2,0.6-0.4C406.9,1045.7,406.7,1045.8,406.5,1045.9z M407.6,1045.2c0.2-0.2,0.4-0.3,0.6-0.5
		C408.1,1044.9,407.8,1045,407.6,1045.2z M408.7,1044.4c0.2-0.2,0.4-0.4,0.6-0.6C409.1,1044,408.9,1044.2,408.7,1044.4z
		 M409.6,1043.5c0.2-0.2,0.3-0.4,0.5-0.6C410,1043.1,409.8,1043.3,409.6,1043.5z M412.7,1038.6c-0.1,0.2-0.1,0.3-0.2,0.5
		C412.6,1038.9,412.6,1038.8,412.7,1038.6z M412.2,1039.8c-0.1,0.1-0.1,0.3-0.2,0.4C412,1040.1,412.1,1040,412.2,1039.8z
		 M411.6,1040.9c-0.1,0.2-0.2,0.3-0.3,0.5C411.4,1041.3,411.5,1041.1,411.6,1040.9z M410.9,1042c-0.1,0.2-0.3,0.4-0.4,0.5
		C410.7,1042.3,410.8,1042.1,410.9,1042z M413,1037.8c0.1-0.2,0.1-0.4,0.2-0.6C413.1,1037.4,413,1037.6,413,1037.8z M413.3,1036.6
		c0.1-0.3,0.1-0.6,0.1-0.9C413.4,1036,413.3,1036.3,413.3,1036.6z M413.5,1035.3c0-0.4,0.1-0.8,0.1-1.2
		C413.5,1034.4,413.5,1034.9,413.5,1035.3z M413.5,1033.9c0-0.2,0-0.3,0-0.5C413.5,1033.6,413.5,1033.7,413.5,1033.9z M413.2,1031
		c0,0.1,0.1,0.3,0.1,0.4C413.2,1031.2,413.2,1031.1,413.2,1031z M413.4,1032.2c0,0.2,0,0.3,0.1,0.5
		C413.4,1032.5,413.4,1032.3,413.4,1032.2z M495.9,1029.8L472.3,957h45.5c-14,32.2,1.3,57.3,20.5,72.8H495.9z"/>
	<path class="st0" d="M1233.8,414.9c7.4-9.9,10.7-20.1,7.2-22.7s-12.3,3.3-19.8,13.3s-10.7,20.1-7.2,22.7
		C1217.5,430.8,1226.3,424.8,1233.8,414.9z"/>
	<path class="st0" d="M1088.5,511.4c22.4,10.2,43.9,11.1,48,2s-10.6-24.8-33-35v0.1c0.3,0.2,0.6,0.4,0.8,0.5
		c-0.3-0.2-0.6-0.4-0.9-0.5L1088.5,511.4C1088.5,511.4,1088.5,511.4,1088.5,511.4L1088.5,511.4z M1090.1,511.8c0,0,0.1,0,0.1,0
		C1090.2,511.9,1090.1,511.8,1090.1,511.8z M1093.4,512.4c0.1,0,0.2,0,0.3,0C1093.5,512.4,1093.5,512.4,1093.4,512.4z M1095.1,512.4
		c0.1,0,0.2,0,0.3,0C1095.3,512.4,1095.2,512.4,1095.1,512.4z M1102.9,506.9c0.1,0.1,0.2,0.3,0.4,0.4
		C1103.1,507.2,1103,507,1102.9,506.9z M1103.4,510.1c-0.2,0.1-0.5,0.3-0.8,0.4C1102.9,510.4,1103.2,510.2,1103.4,510.1z
		 M1102.1,510.8c-0.2,0.1-0.4,0.2-0.6,0.3C1101.7,510.9,1101.9,510.9,1102.1,510.8z M1100.8,501.6c0,0.2,0,0.4,0.1,0.6
		C1100.8,502.1,1100.8,501.8,1100.8,501.6z M1100.9,502.5c0,0.2,0.1,0.4,0.1,0.6C1101,502.9,1100.9,502.7,1100.9,502.5z M1101,503.3
		c0,0.2,0.1,0.4,0.2,0.6C1101.1,503.6,1101.1,503.5,1101,503.3z M1101.3,504.1c0.1,0.2,0.1,0.4,0.2,0.5
		C1101.4,504.4,1101.3,504.2,1101.3,504.1z M1101.6,504.8c0.1,0.2,0.2,0.3,0.3,0.5C1101.7,505.2,1101.7,505,1101.6,504.8z
		 M1102,505.5c0.1,0.2,0.2,0.3,0.3,0.5C1102.1,505.9,1102,505.7,1102,505.5z M1102.4,506.2c0.1,0.2,0.2,0.3,0.3,0.5
		C1102.6,506.5,1102.5,506.4,1102.4,506.2z M1111.1,501.8c-1.7,3.6-4.4,6.4-7.6,8.2c0.6-0.4,1.3-0.8,1.9-1.2v0
		c5-3.7,7.8-9.7,7.3-15.9c-0.3-0.1-0.5-0.2-0.8-0.3c0.3,0.1,0.5,0.2,0.8,0.3c-0.4-5.6-3.5-10.7-8.2-13.8
		C1111.9,484,1114.8,493.6,1111.1,501.8z M1096.6,512.3c0.1,0,0.3,0,0.4,0C1096.9,512.2,1096.7,512.3,1096.6,512.3z M1098.4,512
		c0.1,0,0.3-0.1,0.4-0.1C1098.6,511.9,1098.5,512,1098.4,512z M1099.8,511.6c0.2-0.1,0.3-0.1,0.5-0.2
		C1100.1,511.5,1099.9,511.6,1099.8,511.6z M1103.5,507.5c0.1,0.1,0.2,0.2,0.4,0.4C1103.8,507.8,1103.6,507.7,1103.5,507.5z
		 M1104.2,508.1c0.1,0.1,0.2,0.2,0.4,0.3C1104.4,508.3,1104.3,508.2,1104.2,508.1z M1107,492.8c0.2-0.1,0.5-0.1,0.7-0.2
		C1107.5,492.7,1107.2,492.7,1107,492.8z M1107.8,492.6c0.2-0.1,0.5-0.1,0.7-0.1C1108.2,492.5,1108,492.5,1107.8,492.6z
		 M1108.6,492.5c0.2,0,0.5,0,0.7-0.1C1109,492.4,1108.8,492.4,1108.6,492.5z M1109.4,492.4c0.2,0,0.5,0,0.7,0
		C1109.8,492.4,1109.6,492.4,1109.4,492.4z M1110.2,492.4c0.2,0,0.5,0,0.7,0.1C1110.7,492.5,1110.4,492.4,1110.2,492.4z M1111,492.5
		c0.2,0,0.5,0.1,0.7,0.2C1111.5,492.6,1111.2,492.5,1111,492.5z M1107,492.8c-2.3,0.7-4.3,2.4-5.4,4.7c-0.1,0.3-0.2,0.5-0.3,0.8
		c0.2-0.5,0.4-1,0.6-1.4C1103,494.9,1104.9,493.5,1107,492.8z M1100.8,500.8c0,0.2,0,0.4,0,0.6
		C1100.8,501.2,1100.8,501,1100.8,500.8z M1101.3,498.3c-0.1,0.2-0.2,0.5-0.2,0.8C1101.1,498.8,1101.2,498.6,1101.3,498.3z
		 M1101,499.1c-0.1,0.2-0.1,0.5-0.1,0.7C1100.9,499.6,1101,499.4,1101,499.1z M1100.9,500c0,0.2-0.1,0.5-0.1,0.7
		C1100.8,500.4,1100.8,500.2,1100.9,500z"/>
</g>
</svg>
