<?xml version="1.0" encoding="utf-8"?>
<!-- Generator: Adobe Illustrator 22.0.1, SVG Export Plug-In . SVG Version: 6.00 Build 0)  -->
<svg version="1.1" id="Layer_2_1_" xmlns="http://www.w3.org/2000/svg" xmlns:xlink="http://www.w3.org/1999/xlink" x="0px" y="0px"
	 viewBox="0 0 1600 1200" style="enable-background:new 0 0 1600 1200;" xml:space="preserve">
<style type="text/css">
	.st0{fill:#4856DF;}
</style>
<title>wfh_9</title>
<g>
	<circle class="st0" cx="588" cy="386.9" r="10.1"/>
	<path class="st0" d="M939.3,1016.6h28.3c0,0,3.1-8.6,6.4-24.9c-10.4,0-20.8,0.9-31,2.9L939.3,1016.6z"/>
	<path class="st0" d="M1306.8,697.3c3.2,2.4,11.4-3.2,18.3-12.5s9.8-18.8,6.6-21.2s-11.4,3.2-18.3,12.5S1303.6,694.9,1306.8,697.3z"
		/>
	<path class="st0" d="M1324.9,761.5c0.7,2.2,1,4.6,0.7,7c4.4-0.5,8.7-1.5,12.9-2.8c15.2-4.8,26.1-13.2,24.4-18.8
		c-1.4-4.4-10.1-5.7-21.2-3.8c8-11,11.3-21.7,7.3-25.1s-14,1.8-23.3,11.7c-0.1-11.2-3-19.6-7.6-20.2c-5.8-0.7-12.1,11.6-14,27.4
		c-0.6,4.5-0.7,9.1-0.4,13.6c0,0,0,0,0,0c0.5,7.5,2.4,13.3,5.3,15.5c0.1,0.1,0.2,0.2,0.4,0.3c-9.2,11-16,25.8-20.9,40
		c-1.2,1.6-1.7,3-1.3,4c-1.9,5.9-3.5,11.6-4.8,16.7V642.8v-66.6c0-29.1-15.4-54.6-38.4-68.8V233.6c0-18.4-14.9-33.3-33.3-33.3H849.9
		c-18.4,0-33.3,14.9-33.3,33.3v174.1c-5-3.1-9.2-4.2-11.4-1.9c-5.8,5.8,10.6,25,10.6,25.1c-4.2,0.1-20.6,1.1-23.1,8.7
		c-2.9,8.7,3.8,15.4,3.8,15.4s-11.6,5.8-3.8,16.4c0,0-5.8,9.6,3.8,15.4c0,0-3.3,3.9-0.7,8.7H670.3v-56.5c0-18.4-14.9-33.3-33.3-33.3
		h-5.3v-43.2h67l-28.8-109.6c0,0,0,0,0-0.1v-0.2h-91.7l-0.1,0.2c3.1,6.1,16,27.4,45.9,27.4c4.7,0,8.9-0.5,12.8-1.4
		c-3.9,0.9-8.1,1.4-12.8,1.4c-29.8,0-42.8-21.3-45.8-27.4l-28.8,109.7h67v43.2H276.4c-18.4,0-33.3,14.9-33.3,33.3v360.6
		c0,17.7,13.9,32.2,31.4,33.3c8.3,16.5,21.6,25.4,36.2,29.6v68.4l-81.9,74.4l1.9,2.3c0.5,0.6,1.1,1.2,1.7,1.8c0,0,0.1,0.1,0.1,0.1
		c0.6,0.6,1.2,1.1,1.8,1.6c0,0,0.1,0.1,0.1,0.1c2.9,2.3,6.3,4,9.9,4.9c0,0,0.1,0,0.1,0c0.4,0.1,0.9,0.2,1.3,0.3c0.1,0,0.1,0,0.2,0
		c0.4,0.1,0.9,0.1,1.3,0.2c0.1,0,0.1,0,0.2,0c0.4,0.1,0.9,0.1,1.4,0.1c0.1,0,0.1,0,0.2,0c0.5,0,1,0,1.5,0h0h70.8h106.6h0h126.6
		c22.1,0,42.4-10,55.7-26.1l1.9,16.1c0.7,5.7,5.6,10,11.3,10c5.8,0,10.6-4.3,11.3-10l8.3-70h15.6c3.2,5.1,6.6,10.1,10,15.1
		c-6.8,3.4-10.8,7.9-13,14.2l33.2,15.4c-1.8,7.5-3,15.1-3.4,22.8h0c-0.3,4.2-0.2,8.4,0.2,12.5h133l-0.4-4.1c-0.3-2.9-1-5.7-2.1-8.4
		h0c-2.5-6-7-11-12.6-14.3l-12.6-7.1c10-14.8,19.2-30.2,27.3-46.1h77.6c-0.1,19.6-4.5,32.2-18,41.2c-23.4,15.6-31.7,25.4-30.5,38.8
		l58-0.1c0,0,22.2-19.2,37.6-22.1c10.2-1.9,20.6-2.9,31-2.9c2.7-13.3,5.6-31.8,7.1-55h43v0h23.2l8.3,70c0.7,5.7,5.6,10,11.3,10
		c5.8,0,10.6-4.3,11.3-10l8.3-70h112.2c-1.6,6.9-2.3,14.1-2.1,21.3c0,0,0,0,0,0c0.5,22,9.4,43,24.8,58.7h99.3
		c15.4-15.6,24.3-36.6,24.8-58.5c0,0,0,0,0,0c0.4-15.6-3.4-31-11.1-44.5c-3.1-5.5-6.7-10.6-10.9-15.3l-12.6-14.1
		c-8-9-9.6-22.1-3.8-32.7l10.7-19.9c-2.5,2.5-15.5,14.7-35.4,18.3v0c19.9-3.6,32.8-15.7,35.4-18.3h-33.3l7.6-19.4
		c6.7,0.2,19.4-3.2,33.2-9.3c19.1-8.4,33.1-18.7,31.2-23s-18.9-1-38,7.4c-8.3,3.7-15.7,7.7-21.1,11.4l12.6-32.2
		c3,2,8.8,2.7,15.9,1.8c0.6-5.6-1.6-11.1-6-14.8c-1.9-1.6-4.2-2.7-6.5-3.4C1318.5,751.8,1323.1,755.8,1324.9,761.5z M1299,928.2
		C1299,928.2,1299,928.3,1299,928.2C1299,928.3,1299,928.2,1299,928.2z M1300,929.8c0,0.1,0.1,0.1,0.1,0.2
		C1300.1,929.9,1300,929.8,1300,929.8z M1301,931.4c0.1,0.1,0.1,0.2,0.2,0.3C1301.1,931.6,1301,931.5,1301,931.4z M1301.8,933
		c0.1,0.1,0.1,0.3,0.2,0.4C1301.9,933.3,1301.9,933.1,1301.8,933z M1302.6,934.8c0.1,0.1,0.1,0.3,0.2,0.4
		C1302.7,935,1302.7,934.9,1302.6,934.8z M1249.9,963.9C1249.9,963.9,1249.9,964,1249.9,963.9C1249.9,964,1249.9,963.9,1249.9,963.9
		z M1248.6,964.9c0,0-0.1,0.1-0.1,0.1C1248.5,965,1248.6,965,1248.6,964.9z M1247.3,966.1C1247.3,966.1,1247.3,966.1,1247.3,966.1
		C1247.3,966.1,1247.3,966.1,1247.3,966.1z M820.6,233.6c0-16.2,13.1-29.3,29.3-29.3h0C833.7,204.2,820.6,217.4,820.6,233.6l0,176.8
		c0,0,0,0,0,0V233.6z M247.1,438.9c0-16.2,13.1-29.3,29.3-29.3c0,0,0,0,0,0h0C260.2,409.6,247.1,422.7,247.1,438.9L247.1,438.9z
		 M247.1,799.5c0,0.1,0,0.1,0,0.2C247.1,799.6,247.1,799.6,247.1,799.5L247.1,799.5z M355,942.6c0.2-0.1,6.7-2.4,17.6-5.8h0.1
		C361.6,940.2,355,942.6,355,942.6L355,942.6z M1237.9,936.8c0,0,0,0.1,0.1,0.1C1237.9,936.9,1238,936.9,1237.9,936.8h0.1
		c0,0,0,0.1,0,0.1C1237.9,936.9,1237.9,936.9,1237.9,936.8L1237.9,936.8z M1218.7,959.7c8.7,3.7,15.9,10.9,19.3,20.5c0,0,0,0,0,0.1
		C1234.6,970.7,1227.4,963.5,1218.7,959.7z M1244.2,969.3c-0.2,0.2-0.3,0.4-0.5,0.6C1243.9,969.6,1244.1,969.5,1244.2,969.3z
		 M1243.2,970.6c-0.2,0.2-0.4,0.5-0.5,0.7C1242.8,971.1,1243,970.8,1243.2,970.6z M1242.1,972.1c-0.2,0.2-0.3,0.5-0.5,0.7
		C1241.8,972.6,1241.9,972.3,1242.1,972.1z M1241.1,973.7c-0.1,0.2-0.3,0.5-0.4,0.7C1240.8,974.1,1240.9,973.9,1241.1,973.7z
		 M1240.1,975.3c-0.1,0.2-0.2,0.4-0.3,0.6C1239.9,975.7,1240,975.5,1240.1,975.3z M1239.3,977c-0.1,0.1-0.1,0.3-0.2,0.4
		C1239.2,977.2,1239.2,977.1,1239.3,977z M1303.6,979.9c0.2-0.6,0.4-1.1,0.7-1.7C1304.1,978.7,1303.8,979.3,1303.6,979.9z
		 M1304.6,977.4c0.3-0.7,0.6-1.3,0.9-1.9C1305.2,976.1,1304.9,976.8,1304.6,977.4z M1305.9,974.9c0.3-0.6,0.6-1.1,1-1.7
		C1306.5,973.8,1306.2,974.4,1305.9,974.9z M1307.1,972.9c0.4-0.6,0.8-1.2,1.3-1.8C1307.9,971.6,1307.5,972.2,1307.1,972.9z
		 M1308.7,970.5c0.5-0.6,0.9-1.2,1.4-1.7C1309.7,969.4,1309.2,970,1308.7,970.5z M1310.5,968.5c0.4-0.5,0.9-0.9,1.3-1.4
		C1311.4,967.5,1310.9,968,1310.5,968.5z M1312.2,966.7c0.5-0.5,1-0.9,1.6-1.4C1313.2,965.7,1312.7,966.2,1312.2,966.7z
		 M1314.4,964.8c0.5-0.4,1-0.8,1.5-1.1C1315.4,964,1314.9,964.4,1314.4,964.8z M1316.7,963.1c0.4-0.3,0.8-0.5,1.1-0.7
		C1317.4,962.6,1317,962.8,1316.7,963.1z M1318.7,961.8c0.5-0.3,1-0.6,1.6-0.9C1319.7,961.2,1319.2,961.5,1318.7,961.8z
		 M1342.2,957.5c-0.1,0-0.2,0-0.2,0C1342,957.5,1342.1,957.5,1342.2,957.5z M1337.4,957c-0.1,0-0.3,0-0.4,0
		C1337.1,957,1337.3,957,1337.4,957z M1335.7,957c-0.6,0-1.2,0-1.8,0.1C1334.5,957.1,1335.1,957,1335.7,957z M1321.2,960.4
		c0.3-0.2,0.7-0.3,1-0.5C1321.9,960.1,1321.6,960.3,1321.2,960.4z M1323.9,959.3c0.3-0.1,0.6-0.2,0.9-0.3
		C1324.5,959.1,1324.2,959.2,1323.9,959.3z M1326.1,958.5c0.5-0.2,1-0.3,1.5-0.4C1327.1,958.2,1326.6,958.4,1326.1,958.5z
		 M1328.8,957.8c0.4-0.1,0.8-0.2,1.2-0.2C1329.6,957.7,1329.2,957.7,1328.8,957.8z M1331.6,957.3c0.4-0.1,0.8-0.1,1.2-0.1
		C1332.4,957.2,1332,957.3,1331.6,957.3z M1282.3,915.7C1282.3,915.7,1282.3,915.7,1282.3,915.7L1282.3,915.7
		C1282.3,915.7,1282.3,915.7,1282.3,915.7z M1293.8,922.5C1293.8,922.5,1293.8,922.5,1293.8,922.5
		C1293.8,922.5,1293.8,922.5,1293.8,922.5z M1292.5,921.3c-0.1-0.1-0.2-0.2-0.3-0.2C1292.3,921.2,1292.4,921.2,1292.5,921.3z
		 M1291,920.2c-0.1-0.1-0.3-0.2-0.4-0.3C1290.7,920,1290.9,920.1,1291,920.2z M1289.5,919.2c-0.2-0.1-0.3-0.2-0.5-0.3
		C1289.2,919,1289.3,919.1,1289.5,919.2z M1287.9,918.2c-0.2-0.1-0.3-0.2-0.5-0.3C1287.6,918,1287.7,918.1,1287.9,918.2z
		 M1285.8,917.1c-0.1,0-0.2-0.1-0.2-0.1C1285.6,917,1285.7,917.1,1285.8,917.1z M1284.1,916.3c-0.2-0.1-0.4-0.1-0.5-0.2
		C1283.7,916.2,1283.9,916.3,1284.1,916.3z M1308.8,749.8c-0.1,0-0.3,0-0.4,0C1308.6,749.8,1308.7,749.8,1308.8,749.8z
		 M1307.1,749.9c-0.1,0-0.1,0-0.2,0C1307,749.9,1307.1,749.9,1307.1,749.9z M1310.1,749.9c0.2,0,0.5,0,0.7,0.1
		C1310.5,749.9,1310.3,749.9,1310.1,749.9z M1311.3,750c0.5,0.1,1,0.2,1.5,0.3C1312.4,750.2,1311.8,750.1,1311.3,750z"/>
</g>
</svg>
