<?xml version="1.0" encoding="utf-8"?>
<!-- Generator: Adobe Illustrator 22.0.1, SVG Export Plug-In . SVG Version: 6.00 Build 0)  -->
<svg version="1.1" id="Layer_1" xmlns="http://www.w3.org/2000/svg" xmlns:xlink="http://www.w3.org/1999/xlink" x="0px" y="0px"
	 viewBox="0 0 1600 1200" style="enable-background:new 0 0 1600 1200;" xml:space="preserve">
<style type="text/css">
	.st0{fill:#30242A;}
</style>
<title>wfh_8</title>
<g>
	<circle class="st0" cx="313.6" cy="1015" r="38.8"/>
	<path class="st0" d="M1159.8,679.7c-12.8-5.6-25.6-4.6-28.6,2.2c-0.5,1.1-0.7,2.3-0.6,3.6v85.3h47.5v0h36.4v-43.6h0
		c0.1-1.2-0.1-2.4-0.6-3.6c-3-6.8-15.8-7.8-28.6-2.2c-2.6,1.1-5,2.5-7.2,3.9V699h0c0,0,0,0,0,0
		C1178.1,692.5,1170.7,684.4,1159.8,679.7z M1196.2,746.1c-5.6,2.4-11.2,3.6-15.9,3.6C1185,749.7,1190.6,748.5,1196.2,746.1z"/>
	<path class="st0" d="M1309.6,770.7h-241.7c57-69.7-0.9-202.3-0.9-202.3s-7.5,16.9-27.1,17.6v0c19.5-0.8,27-17.6,27-17.6h-21.4
		l13.8-46.9c7.5,5.8,24.7,13.8,45.4,20.5c28.9,9.4,53.7,12.8,55.3,7.7c1.7-5.1-20.4-16.8-49.3-26.2c-20.9-6.8-39.7-10.5-49.1-10
		l20.3-69.2c3.8,2,11,1.4,19.4-1.4c-0.6-6.9-4.7-13.1-10.8-16.3c-0.7-0.4-1.4-0.7-2.2-1c7.1,2.7,12.4,9.2,13.1,17.3
		c5.2-1.8,10.2-4,15-6.8c16.7-9.5,27.5-22.2,24-28.3c-2.8-4.8-13.4-4.2-26,0.9c6.7-15,7.8-28.5,2.2-31.4s-16,5.7-24.5,19.7
		c-3-13.2-8.5-22.3-14.1-21.8c-7,0.6-11.3,16.7-9.5,35.9c0.5,5.3,1.4,10.5,2.8,15.7c0,0-0.1,0-0.1,0c2.6,9,6.3,15.5,10.3,17.4
		c0,0,0,0,0,0c-10.2,19.8-18.7,46.1-25.1,70.4c-0.6,0.3-1.1,0.8-1.2,1.3c-0.2,0.6-0.1,1.3,0.4,2c-5.3,20.1-9.1,38.6-11.4,50.6h-4.5
		v-241c0-106.3-86.2-192.4-192.4-192.4H834c-106.3,0-192.4,86.1-192.4,192.4v61.1c-2.3-0.2-4.2,0.3-5.4,1.5c-3,3.2-0.6,10.7,5.4,19
		v2.8c-13.6-1.2-24.2,1.4-25.2,6.7c-1,5.6,9.1,12.2,23.4,15.8c-10.6,6.1-16.9,13.3-15,17.9c1.5,3.7,8.1,4.8,16.7,3.5v65.5
		c-12.5-10.8-25.1-21.4-33.4-27.5c-6.8-5-15.5-8.8-23-11.4c0,0,0,0,0,0c-5.2-1.8-10.6-3.3-16-4.5l-3.1-18.6c0,0,14.5,5.2,26.9-2.1
		c12.4-7.2,15.5-20.7,11.4-41.3c-0.8-4.1-1.4-8.5-1.8-13.1c0.6,0,1.2-0.1,1.7-0.2l-1.8-0.3c-0.8-9-1.3-18.5-2.6-27.3c0,0,0,0,0,0
		c-1.4-9.3-3.9-17.9-8.9-24.2c-12.4-15.5-46.5-25.8-73.4-6.2c-26.9,19.6-24.8,51.7-23.8,64.1c0,0-28.9-9.3-49.6,12.4
		c-12.2,12.6-17.2,30.5-13.4,47.6c0,0-38.1-1.1-45.5,34.1c-4.2,20,3.6,33.3,12.4,41.6c0.2,0.2,0.5,0.4,0.7,0.6
		c-7.5,14.1-15.1,30.5-21.1,47.7c1.4,2.8,3.8,5,6.7,6.1c2.2,0.9,4.6,1,6.8,0.6c-4.1,0.8-8.6-0.5-11.6-3.9c-0.8-0.9-1.4-1.8-2-2.9
		c-11.4,32.2-17.2,66.6-6.2,91.4c9.8,21.9,27.5,31.7,46.2,35.2c-0.8,13.7,0.3,28.4,4,42c0.4,0,0.8,0,1.2,0l1.7,0h-1.7
		c-0.4,0-0.8,0-1.2,0c8,29.6,28.6,54.6,70.2,55.2h-70.1c-4.8,0-8.7,3.9-8.7,8.7c0,4.8,3.9,8.7,8.7,8.7h21.4l-35.3,211.8
		c-0.7,4,2,7.8,6,8.4c0.4,0.1,0.8,0.1,1.2,0.1c3.4,0,6.4-2.4,7.1-5.8l15.6-71.8h129.4l15.6,71.8c0.7,3.4,3.7,5.8,7.2,5.8
		c4,0,7.3-3.3,7.3-7.3c0-0.4,0-0.8-0.1-1.2L561.5,834h0v-0.3H583c4.8,0,8.7-3.9,8.7-8.7c0-4.6-3.6-8.4-8.1-8.7h26.5
		c-0.2,20.8-10.7,38.7-18.3,63.9c-11.6,38.8-1.9,79.5-1.9,79.5h2.7h103c0.4-6.1,1-12.8,1.8-20.1c9,18.5,19.8,30.2,19.8,30.2
		l13.1-6.2l0.1,0.2l79.5-37.2c-6.2-18.5-12.7-43.2-23.3-75.4c-10-30.2-16.5-52.7-22.8-70.2c-12.4-34.9-23.2-49.4-55.7-64.5l-0.6-0.3
		c-0.5,0.5-0.9,1-1.4,1.5c0.5-0.5,0.9-1,1.4-1.5c-6.6-3-15.8-5.8-26.6-8.4h64.4c6.4,0,12.1-4.2,14-10.3l8.4-26.6h216.9
		c-2.7,35.1,1.9,72.3,24.4,99.8h-93.8v225.8h44.1l-15.6,47.4c-0.3,0.8-0.4,1.6-0.4,2.4c0,4.2,3.4,7.7,7.7,7.7c2.8,0,5.3-1.5,6.7-3.9
		l29.9-53.5H1236l29.9,53.5c1.3,2.4,3.9,3.9,6.7,3.9c4.2,0,7.7-3.4,7.7-7.7c0-0.8-0.1-1.6-0.4-2.4l-15.6-47.4h45.4V770.7z
		 M1088.2,425.5c-0.3-0.1-0.7-0.2-1-0.3C1087.5,425.2,1087.9,425.3,1088.2,425.5z M1085.9,424.8c-0.2,0-0.4-0.1-0.6-0.1
		C1085.5,424.7,1085.7,424.7,1085.9,424.8z M1083.8,424.4C1083.7,424.4,1083.7,424.4,1083.8,424.4
		C1083.7,424.4,1083.7,424.4,1083.8,424.4z M826.2,641.7v0.2H810v-0.2H826.2z M988.4,641.7c0,0.1,0,0.1,0,0.2h-15.6v-0.2H988.4z
		 M874,641.8v-0.2h28.5v0.2H874z M907.3,641.7h31.6v0.2h-31.6V641.7z M597.6,591.4c0,0,5.2,4.1,13.5,9.9l-11.5,36.4
		c-2.5-0.7-5.2-1.4-8.1-2.2c-4.6-1.1-9.4-2-14.5-2.6c5.4-8.2,10.4-15.9,12.9-20.2C596.6,601.1,597.6,591.4,597.6,591.4z
		 M584.3,487.8c-2.7,14.4-10.1,34.8-30.3,34.8c-1.3,0-3.1,0.1-5.1,0.1c2,0,3.7-0.1,5.1-0.1C574.1,522.7,581.6,502.1,584.3,487.8z
		 M594.5,375.1c0.2,0,0.3,0,0.5,0C594.8,375.1,594.6,375.1,594.5,375.1z M579.6,373.3C579.6,373.3,579.6,373.3,579.6,373.3
		c-10.1,11.4-20.6,17.3-27.2,20.2C559,390.6,569.5,384.6,579.6,373.3z M510.3,401.2c1.2-6.6,4.8-10.7,9.5-12.6
		C515.2,390.5,511.5,394.6,510.3,401.2c-2.5,14.5,10.2,21.2,16.8,23.6l0,0C520.5,422.4,507.8,415.7,510.3,401.2z M487.3,478.8
		C487.3,478.8,487.3,478.8,487.3,478.8l-9,1c-0.7,0.1-1.3,0.2-1.9,0.2c0,0-0.1,0-0.1,0c0.7-0.1,1.3-0.2,2-0.3L487.3,478.8z
		 M396.8,596c0.1,0.8,0.2,1.7,0.5,2.4C397.1,597.7,396.9,596.9,396.8,596C396.8,596.1,396.8,596.1,396.8,596z M393,598.4
		c-0.7,0.3-1.5,0.5-2.3,0.7C391.5,598.9,392.2,598.7,393,598.4z M395.9,596.8c-0.1,0-0.1,0.1-0.2,0.1
		C395.8,596.9,395.8,596.9,395.9,596.8z M395,597.4c-0.1,0.1-0.2,0.1-0.3,0.2C394.8,597.6,394.9,597.5,395,597.4z M393.9,598
		c-0.2,0.1-0.4,0.2-0.6,0.3C393.5,598.2,393.7,598.1,393.9,598z M399.6,602.9c0.2,0.3,0.4,0.5,0.7,0.8c-0.1-0.1-0.2-0.2-0.2-0.2
		C399.9,603.3,399.8,603.1,399.6,602.9z M397.3,598.6c0.1,0.4,0.2,0.7,0.4,1C397.6,599.3,397.4,599,397.3,598.6z M397.7,599.8
		c0.5,1.1,1.1,2.2,1.8,3.1C398.8,601.9,398.2,600.9,397.7,599.8z M408.3,607.5c0.2,0,0.4,0,0.6,0
		C408.8,607.5,408.5,607.5,408.3,607.5z M400.6,603.9c0.2,0.2,0.4,0.4,0.7,0.6C401,604.3,400.8,604.1,400.6,603.9z M401.4,604.7
		c0.2,0.2,0.5,0.4,0.8,0.6C401.9,605.1,401.7,604.9,401.4,604.7z M402.4,605.4c0.3,0.2,0.6,0.4,0.8,0.5
		C402.9,605.8,402.7,605.6,402.4,605.4z M403.4,606c0.3,0.1,0.6,0.3,0.8,0.4C404,606.3,403.7,606.2,403.4,606z M404.6,606.6
		c0.3,0.1,0.5,0.2,0.8,0.3C405.1,606.8,404.9,606.7,404.6,606.6z M405.9,607c0.2,0.1,0.4,0.1,0.7,0.2
		C406.3,607.1,406.1,607.1,405.9,607z M407.1,607.3c0.2,0,0.4,0.1,0.6,0.1C407.5,607.4,407.3,607.3,407.1,607.3z M410.2,607.5
		c-0.2,0-0.4,0-0.7,0C409.8,607.5,410,607.5,410.2,607.5z M440.9,960l27.5-126h0l0.1-0.3h67.1L563.1,960H440.9z M711.1,779.3
		C711.1,779.3,711.1,779.3,711.1,779.3c0.2,0.1,0.4,0.3,0.6,0.5C711.6,779.6,711.4,779.5,711.1,779.3z M695.5,747.4
		c0,0.5,0,0.9,0.1,1.4C695.5,748.3,695.5,747.9,695.5,747.4z M695.6,749.5c0,0.4,0.1,0.9,0.1,1.3
		C695.7,750.3,695.6,749.9,695.6,749.5z M695.8,751.5c0.1,0.4,0.1,0.8,0.2,1.2C695.9,752.3,695.9,751.9,695.8,751.5z M696.1,753.5
		c0.1,0.4,0.1,0.8,0.2,1.2C696.3,754.3,696.2,753.9,696.1,753.5z M696.5,755.5c0.1,0.4,0.2,0.7,0.3,1.1
		C696.7,756.2,696.6,755.8,696.5,755.5z M697,757.4c0.1,0.3,0.2,0.6,0.3,0.9C697.2,758,697.1,757.7,697,757.4z M697.6,759.3
		c0.1,0.2,0.1,0.4,0.2,0.6C697.7,759.7,697.6,759.5,697.6,759.3z M699.7,764.6C699.7,764.6,699.7,764.6,699.7,764.6
		C699.7,764.6,699.7,764.6,699.7,764.6z M700.5,766.2c0,0.1,0.1,0.1,0.1,0.2C700.5,766.3,700.5,766.2,700.5,766.2z M717.1,783.4
		c0.5,0.3,1,0.6,1.6,0.9C718.1,784,717.6,783.7,717.1,783.4z M711.9,779.9c0.5,0.4,1,0.8,1.5,1.1
		C712.9,780.7,712.4,780.3,711.9,779.9z M713.6,781.1c0.5,0.4,1,0.7,1.6,1.1C714.6,781.9,714.1,781.5,713.6,781.1z M715.3,782.3
		c0.5,0.3,1.1,0.7,1.6,1C716.3,783,715.8,782.6,715.3,782.3z M718.9,784.4c0.5,0.3,1,0.5,1.5,0.7
		C719.9,784.9,719.4,784.7,718.9,784.4z M720.9,785.3c0.5,0.2,0.9,0.4,1.4,0.6C721.8,785.7,721.3,785.5,720.9,785.3z M722.8,786.2
		c0.4,0.2,0.9,0.3,1.3,0.5C723.7,786.5,723.3,786.3,722.8,786.2z M724.9,786.9c0.4,0.1,0.8,0.3,1.2,0.4
		C725.7,787.1,725.3,787,724.9,786.9z M726.9,787.5c0.4,0.1,0.7,0.2,1.1,0.3C727.6,787.7,727.3,787.6,726.9,787.5z M729,788
		c0.3,0.1,0.7,0.2,1,0.2C729.6,788.2,729.3,788.1,729,788z M737.1,789.1c0.4,0,0.8,0,1.2,0C737.9,789.1,737.5,789.1,737.1,789.1z
		 M731,788.5c0.3,0.1,0.7,0.1,1,0.2C731.7,788.6,731.3,788.5,731,788.5z M733.1,788.8c0.3,0,0.7,0.1,1,0.1
		C733.7,788.9,733.4,788.8,733.1,788.8z M735.1,789c0.4,0,0.7,0.1,1.1,0.1C735.8,789,735.4,789,735.1,789z M761.8,782.3
		c0.1,0,0.1-0.1,0.2-0.1C761.9,782.2,761.9,782.3,761.8,782.3z M760,783.4c0,0,0.1,0,0.1-0.1C760.1,783.4,760,783.4,760,783.4z
		 M695.5,745.1c0,0.6,0,1.2,0,1.8C695.5,746.2,695.5,745.6,695.5,745.1z M705.6,718.3c-0.3,0.3-0.6,0.7-0.8,1
		C705,719,705.3,718.6,705.6,718.3z M704.2,720c-0.2,0.3-0.4,0.6-0.6,0.9C703.7,720.6,703.9,720.3,704.2,720z M702.9,721.8
		c-0.2,0.3-0.3,0.5-0.5,0.8C702.6,722.3,702.8,722,702.9,721.8z M701.8,723.5c-0.1,0.2-0.3,0.5-0.4,0.7
		C701.5,724,701.7,723.7,701.8,723.5z M700.8,725.3c-0.1,0.2-0.2,0.4-0.3,0.5C700.6,725.6,700.7,725.4,700.8,725.3z M699.9,727
		C699.8,727.1,699.8,727.1,699.9,727C699.8,727.1,699.8,727.1,699.9,727z M697.8,731.9c0,0.1-0.1,0.2-0.1,0.3
		C697.7,732.1,697.8,732,697.8,731.9z M697.3,733.6c-0.1,0.2-0.1,0.4-0.2,0.5C697.2,733.9,697.2,733.8,697.3,733.6z M696.8,735.4
		c-0.1,0.2-0.1,0.4-0.2,0.7C696.7,735.8,696.7,735.6,696.8,735.4z M696.4,737.2c-0.1,0.3-0.1,0.5-0.1,0.8
		C696.3,737.7,696.3,737.5,696.4,737.2z M696,739.1c0,0.3-0.1,0.6-0.1,0.9C695.9,739.7,696,739.4,696,739.1z M695.8,741
		c0,0.3-0.1,0.7-0.1,1C695.7,741.7,695.7,741.3,695.8,741z M695.6,742.9c0,0.6-0.1,1.3-0.1,1.9C695.5,744.2,695.5,743.6,695.6,742.9
		z"/>
	<path class="st0" d="M718.4,1017C718.4,1017,718.4,1017,718.4,1017c-1.5-1-3-2.1-4.6-3.1c-4.3-2.8-8-6.3-10.9-10.5
		c-7-10.3-8.5-24.1-7.3-43.6h-89.3c0.2,14.6,1.2,29.1,3.2,43.6c2.3,16.4,5.4,27.6,7.8,39.5h-4.7c-0.6,0-1.1,0.1-1.7,0.3h0
		c-2.9,0.9-4.5,4-3.6,6.9c0.7,2.3,2.8,3.8,5.2,3.8l132.7,0.2C746.4,1041.1,739.1,1031.4,718.4,1017z"/>
	<path class="st0" d="M853.4,974.4l-1.2-0.2c-2.4,10.5-2.6,21.4-0.8,32.1l0,0c-1.9-10.7-1.6-21.6,0.8-32.1
		c-8.3-1.6-14.7-4.3-20.1-8.5c-9.9-7.7-15.9-20.2-22.2-39l-79.5,37.2c6.7,15.5,16.2,31.8,25.2,46c7.9,12.4,15.4,23.2,20.4,30.4
		l-2.9,1.4c-0.2,0.1-0.4,0.2-0.5,0.3l-0.4,0.2c-3,2.1-3.7,6.1-1.6,9.1c1.8,2.6,5.3,3.5,8.1,2.2l120.2-56
		C894.2,984.4,882.1,979.4,853.4,974.4z"/>
	<path class="st0" d="M1137.8,466.7c-26.3,8.2-45,23.6-41.7,34.3c3.4,10.7,27.4,12.7,53.8,4.5v-0.1c0,0,0,0,0,0L1137.8,466.7
		c-0.1,0.1-0.2,0.2-0.3,0.2C1137.6,466.9,1137.7,466.8,1137.8,466.7L1137.8,466.7z M1131.3,471.1c-0.1,0.1-0.2,0.2-0.4,0.4
		C1131,471.3,1131.1,471.2,1131.3,471.1z M1129.8,472.7c0,0-0.1,0.1-0.1,0.1C1129.7,472.8,1129.7,472.7,1129.8,472.7z M1128.6,474.2
		c0,0-0.1,0.1-0.1,0.1C1128.6,474.3,1128.6,474.3,1128.6,474.2z M1129.4,498C1129.4,498,1129.4,498,1129.4,498
		C1129.4,498,1129.4,498,1129.4,498z M1131.8,500.6C1131.8,500.6,1131.8,500.6,1131.8,500.6C1131.8,500.6,1131.8,500.6,1131.8,500.6
		z M1136.1,503.6C1136.1,503.6,1136.1,503.6,1136.1,503.6C1136.1,503.6,1136.1,503.6,1136.1,503.6z M1139.3,504.9c0,0,0.1,0,0.1,0
		C1139.4,504.9,1139.3,504.9,1139.3,504.9z M1140.9,505.4c0,0,0.1,0,0.1,0C1141,505.4,1141,505.4,1140.9,505.4z M1142.7,505.7
		c0.1,0,0.1,0,0.2,0C1142.8,505.7,1142.7,505.7,1142.7,505.7z M1144.3,505.9c0.1,0,0.2,0,0.3,0
		C1144.5,505.9,1144.4,505.9,1144.3,505.9z M1148,505.7c0.1,0,0.2,0,0.3,0C1148.1,505.7,1148,505.7,1148,505.7z M1131.5,500.3
		L1131.5,500.3c4.7-1.9,7.2-7.2,5.7-12.1c-1.5-4.9-6.6-7.8-11.6-6.7c0,0,0,0,0,0c4.7-1.1,9.6,1.4,11.4,5.9
		C1139,492.5,1136.6,498.3,1131.5,500.3z M1132.5,470c0.1-0.1,0.2-0.2,0.4-0.3C1132.7,469.8,1132.6,469.9,1132.5,470z M1133.8,468.9
		c0.2-0.1,0.3-0.2,0.5-0.3C1134.2,468.7,1134,468.8,1133.8,468.9z M1135.7,467.8c0.2-0.1,0.4-0.2,0.6-0.3
		C1136,467.6,1135.9,467.7,1135.7,467.8z"/>
</g>
</svg>
