<?xml version="1.0" encoding="utf-8"?>
<!-- Generator: Adobe Illustrator 22.0.1, SVG Export Plug-In . SVG Version: 6.00 Build 0)  -->
<svg version="1.1" id="Layer_1" xmlns="http://www.w3.org/2000/svg" xmlns:xlink="http://www.w3.org/1999/xlink" x="0px" y="0px"
	 viewBox="0 0 1600 1200" style="enable-background:new 0 0 1600 1200;" xml:space="preserve">
<style type="text/css">
	.st0{fill:#3D3B37;}
</style>
<title>wfh_10</title>
<g>
	<path class="st0" d="M579.6,420.3c0.6,0.5,1.1,1,1.7,1.4C580.8,421.3,580.2,420.8,579.6,420.3z"/>
	<polygon class="st0" points="328.2,518.8 328.2,518.8 328.2,518.8 	"/>
	<polygon class="st0" points="496.3,518.8 496.3,518.8 496.3,518.8 	"/>
	<path class="st0" d="M334.5,525h12.1v39.6c0,15.5,12.5,28,28,28h75.2c15.5,0,28-12.5,28-28V525H490c3.5,0,6.3-2.8,6.3-6.3
		s-2.8-6.3-6.3-6.3h-12.1v-28.9c0,0,0-0.1,0-0.1h-64.2c6.7,0,12.1-5.4,12.1-12.1c0-6.7-5.4-12.1-12.1-12.1s-12.1,5.4-12.1,12.1
		c0,6.7,5.4,12.1,12.1,12.1h-67.1c0,0,0.7,1.2,2.2,3c1.2,1.6,2.9,3.6,5.2,5.9c-2.3-2.3-4-4.4-5.2-5.9c-1.5-1.9-2.2-3-2.2-3v29h-12.1
		c-3.5,0-6.3,2.8-6.3,6.3S331.1,525,334.5,525z M369.1,504.5c1.6,1,3.3,2,5.1,2.9s3.7,1.8,5.7,2.6c-2-0.8-3.9-1.7-5.7-2.6
		S370.7,505.5,369.1,504.5c-2.4-1.5-4.6-3-6.6-4.6C364.4,501.5,366.6,503,369.1,504.5z M360.5,498.4c-1.9-1.5-3.6-3-5.1-4.5
		C356.9,495.3,358.6,496.9,360.5,498.4z"/>
	<circle class="st0" cx="414.7" cy="390.3" r="17.9"/>
	<circle class="st0" cx="415" cy="328.3" r="26.3"/>
	<path class="st0" d="M1259.7,829.7c-24.1,0-33.3-20.7-33.3-20.7s-67.8,155.1-1.2,236.6h68.9C1360.8,964,1293,809,1293,809
		S1283.8,829.7,1259.7,829.7z"/>
	<path class="st0" d="M1226.4,809c0,0,9.2,20.7,33.3,20.7S1293,809,1293,809H1226.4z"/>
	<path class="st0" d="M1200,759c20.5,8.8,38.9,11.9,41,7c2.1-4.9-12.8-16-33.4-24.8c-4.2-1.8-8.3-3.3-12.2-4.6v-44.9
		c1,0.5,2.1,1,3.2,1.4c0.4,0.1,0.7,0.2,1.1,0.4c0,0.2-0.1,0.4-0.1,0.6l0.4-0.5c13.5,3.9,27.8-3.4,32.6-16.8c2.5-7,1.9-14.7-1.6-21.3
		l0.2-0.3c-0.1,0-0.2,0.1-0.3,0.1c-0.2-0.4-0.4-0.8-0.7-1.2c0,0,0,0,0,0c-7.2-12-22.5-16.3-34.8-10.1v-11.1c0-11-9-20-20-20h-166.4
		c10.7,0,19.3-8.6,19.3-19.3v-36.7h91.2c17.9,0,32.4-14.5,32.4-32.4V334.4c0-17.9-14.5-32.4-32.4-32.4H977h-96.1h-34.5
		c-17.9,0-32.4,14.5-32.4,32.4v69c-12.3-25.9-25.7-52.2-33.8-62.8c-18.4-24.1-56.2-22.8-56.2-22.8l0.1-7.1h0l0.1-10.5
		c22.9,5.7,31.3-3.3,35.7-11.4c5-9.2,3.5-17.8,1.8-29c0,0,8.2-3.2,7.5-8.2c-0.5-4-9.2-5.5-9.2-5.5c-0.1-1.8-0.2-3.6-0.3-5.5
		c-0.1-5-0.5-10-1.1-15c0,0,0,0,0,0c0,0,0-0.1,0-0.1c0,0,15.4-7.4,19.6-21.1c7.8-25.1-24.1-38.6-40.4-19.9
		c-9.7-5.4-25-10.9-42.2-5.5c-31.6,9.9-37.7,37.2-41.9,55.4c-2.9,12.6-5.8,27-5.8,27s-54.1,3.9-48.3,58.9
		c-28.8,6.6-58.9,45.3-35.8,82.2c4.3,6.7,9.6,12.7,15.7,17.7c0.6,0.5,1.2,1,1.7,1.4c11.1,9.6,48.8,21.5,74.5-1.6
		c-25.7,23.2-63.4,11.3-74.5,1.7c-5.8,10.6-34.8,57.9-19.3,93.7c10.4,21.5,41.4,23.1,55.1,22.6c-9,15.4-15.5,34.5-20.3,54.6h-50.9
		l-9.7,20.3h-79.2l-9.7-20.3h-71.5l-9.7,20.3h-37.5c-11,0-20,9-20,20v181.8h-34.3l34.3,70v160.8h374.9h0.7h511.1V757
		C1196.9,757.6,1198.5,758.3,1200,759z M699.1,310.6C699.1,310.6,699.1,310.6,699.1,310.6c2.2-6.6,3.3-13.5,3.3-20.4
		C702.4,297.1,701.3,304,699.1,310.6z M717,517.3l9.7,0L717,517.3L717,517.3z M716.9,517.3C716.9,517.3,716.9,517.3,716.9,517.3
		C716.9,517.3,716.9,517.3,716.9,517.3L716.9,517.3z M1123,499v-82.5h0L1123,499z M1105.9,330.9c9.5,0,17.2,7.7,17.2,17.2l0,64.4h0
		v-64.4C1123,338.6,1115.3,331,1105.9,330.9L1105.9,330.9z M848.6,335.4c-0.2,0.2-0.4,0.3-0.6,0.5
		C848.2,335.8,848.4,335.6,848.6,335.4z M859.3,331c-0.3,0-0.6,0-0.8,0C858.7,331,859,331,859.3,331z M857.5,331.2
		c-0.3,0-0.6,0.1-0.8,0.1C857,331.2,857.3,331.2,857.5,331.2z M855.9,331.5c-0.3,0.1-0.5,0.1-0.8,0.2
		C855.3,331.6,855.6,331.6,855.9,331.5z M854.2,332c-0.2,0.1-0.5,0.2-0.7,0.3C853.7,332.2,854,332.1,854.2,332z M852.7,332.7
		c-0.2,0.1-0.5,0.2-0.7,0.3C852.2,332.9,852.5,332.8,852.7,332.7z M851.2,333.5c-0.2,0.1-0.4,0.3-0.7,0.4
		C850.8,333.7,851,333.6,851.2,333.5z M849.9,334.4c-0.2,0.2-0.4,0.3-0.6,0.5C849.5,334.7,849.7,334.5,849.9,334.4z M847.5,336.6
		c-0.2,0.2-0.4,0.4-0.5,0.6C847.1,337,847.3,336.8,847.5,336.6z M846.4,337.9c-0.2,0.2-0.3,0.4-0.5,0.6
		C846.1,338.3,846.3,338.1,846.4,337.9z M845.5,339.3c-0.1,0.2-0.3,0.4-0.4,0.6C845.2,339.7,845.3,339.5,845.5,339.3z M844.7,340.8
		c-0.1,0.2-0.2,0.4-0.3,0.7C844.4,341.2,844.6,341,844.7,340.8z M844.1,342.2c-0.1,0.3-0.2,0.5-0.3,0.8
		C843.9,342.7,844,342.5,844.1,342.2z M843.5,343.9c-0.1,0.2-0.1,0.5-0.2,0.7C843.4,344.4,843.5,344.2,843.5,343.9z M843.2,345.7
		c0,0.2-0.1,0.4-0.1,0.7C843.1,346.1,843.2,345.9,843.2,345.7z M801.5,536.6c20.7,19.3,59.3,35.9,81.2,44.3l0.1-0.1l-0.2,0.2
		c9.8,3.8,16.3,5.9,16.3,5.9s3.8,5.9,10.2,12.7c-3,0.7-5.3,3.4-5.3,6.6c0,3.7,3,6.8,6.8,6.8H789.5c-14.8-58.7-33.4-95.5-33.5-95.6
		l2.9-42.5l-7.5-18.5l7.6,18.5C759,474.8,772.5,509.5,801.5,536.6z M686.5,227.6c6.2-4,12.8-1.5,18.1,2.4
		C699.3,226.1,692.7,223.6,686.5,227.6c-6.1,4-8.7,9.4-8.8,14.9C677.8,237,680.4,231.5,686.5,227.6z M692.2,376.5
		c-4.4,4.2-10,8.1-17.2,11.4c0,0,0,0,0,0C682.1,384.6,687.8,380.8,692.2,376.5z"/>
	<path class="st0" d="M1353.8,751c-1.8-4.8-20.9-2.1-42.5,6.1c-21.7,8.2-37.8,18.7-35.9,23.5c1.8,4.8,20.9,2.1,42.5-6.1
		C1339.6,766.3,1355.7,755.8,1353.8,751z"/>
	<path class="st0" d="M1248.1,732.6c10.5,7.6,21,11.2,23.3,8c2.3-3.2-4.3-12-14.8-19.7c-10.5-7.6-21-11.2-23.3-8
		C1230.9,716.1,1237.6,724.9,1248.1,732.6z"/>
	<path class="st0" d="M1271.2,692.7c0.7,0.2,1.5,0.4,2.2,0.6l0,0C1272.7,693.1,1272,692.9,1271.2,692.7c-3.3,7.2-3.2,15.6,0.2,22.7
		c6.4,13.3,22.3,18.8,35.6,12.4c-0.6-2.2-1.3-4.3-2.2-6.4l0,0c0.9,2.1,1.6,4.2,2.2,6.4c5.6-2.7,10.1-7.2,12.6-12.9
		c6.2-13.4,0.3-29.2-13.1-35.4C1293.2,673.5,1277.4,679.3,1271.2,692.7z"/>
	<path class="st0" d="M1260,656.4L1260,656.4c-0.5,0.6-1.1,1.2-1.6,1.8c9.1,11.6,25.9,13.5,37.5,4.4c6.2-4.9,9.9-12.3,10.1-20.2
		l0.5-0.1c-0.2,0-0.3-0.1-0.5-0.1c0.3-14.7-11.4-26.8-26.1-27.2c-14.7-0.3-26.9,11.3-27.3,26.1c-0.1,6.2,1.9,12.2,5.7,17.1
		C1258.9,657.6,1259.5,657,1260,656.4z"/>
</g>
</svg>
