<?xml version="1.0" encoding="utf-8"?>
<!-- Generator: Adobe Illustrator 22.0.1, SVG Export Plug-In . SVG Version: 6.00 Build 0)  -->
<svg version="1.1" id="Layer_1" xmlns="http://www.w3.org/2000/svg" xmlns:xlink="http://www.w3.org/1999/xlink" x="0px" y="0px"
	 viewBox="0 0 1600 1200" style="enable-background:new 0 0 1600 1200;" xml:space="preserve">
<style type="text/css">
	.st0{fill:#FF7235;}
</style>
<title>wfh_6</title>
<path class="st0" d="M1350.3,181h-136.1l-0.1-1.5c0.6,0.1,1.1,0.1,1.7,0.1c8.5,0,15.4-6.9,15.4-15.4s-6.9-15.4-15.4-15.4
	s-15.4,6.9-15.4,15.4c0,5.6,3,10.5,7.4,13.2l-3.3,3.6h-148.2l4.1-21.7c0.5-2.5-0.2-5.2-1.8-7.2c-3-3.8-8.6-4.4-12.4-1.4l-17.2,13.8
	c-2.8,2.2-6.6,2.6-9.8,0.8l-19.3-10.6c-2.3-1.3-5-1.4-7.4-0.5c-4.6,1.7-6.8,6.8-5.1,11.4l5.8,15.4H800.7
	c-26.9,0-48.6,21.8-48.7,48.7v253l-31.5-31.2l-7.3,7.4l-16.4,16.6l-7.4,7.5h-27.9c-1.3-7.1-3.3-14.4-6.1-21.1
	c-7.4-17.3-17.7-25.3-24.8-22.2s-8.4,16-1,33.3c1.5,3.4,3.2,6.8,5.2,10h-7c-8.7-7.1-17.9-13.8-26.6-18.3c-21-11-37.3-10.7-41.9-2
	c-2.9,5.4-0.3,12.9,7.2,20.4H366.3l-3.3-3.6c4.4-2.7,7.4-7.6,7.4-13.2c0-8.5-6.9-15.4-15.4-15.4s-15.4,6.9-15.4,15.4
	s6.9,15.4,15.4,15.4c0.6,0,1.2,0,1.7-0.1l-0.1,1.5h-119c-26.9,0-48.6,21.8-48.7,48.7v229.2c-1.9,0.9-3.8,1.8-5.7,2.9
	c-26.8,15.5-37.6,46.9-24.2,70.1c6.4,11.2,17.3,18.4,29.8,21.2v100.2c0,26.9,21.8,48.6,48.7,48.7h37.4c0.2,0.3,0.5,0.7,0.7,1
	c0,0,0,0,0,0c0,0,0,0,0,0c1.9,2.8,3.9,5.4,5.9,8c0.2,0.3,0.4,0.5,0.6,0.8c0.7,0.9,1.3,1.7,2,2.6c0.4,0.5,0.8,1,1.1,1.4
	c0.5,0.6,0.9,1.2,1.4,1.7c0.4,0.5,0.8,1,1.2,1.4c0.4,0.5,0.9,1,1.4,1.6c0.2,0.2,0.4,0.4,0.6,0.7c0.5,0.5,0.9,0.9,1.4,1.4
	c0.3,0.3,0.5,0.5,0.8,0.8c0.5,0.5,1,0.9,1.5,1.4c0.3,0.2,0.5,0.5,0.8,0.7c0.5,0.5,1.1,0.9,1.7,1.3c0.2,0.2,0.5,0.4,0.7,0.6
	c0.6,0.5,1.2,0.9,1.9,1.4c0.2,0.1,0.4,0.3,0.6,0.4c0.7,0.5,1.4,0.9,2.1,1.4c0.1,0.1,0.3,0.2,0.4,0.2c8.8,5.4,19.5,9.3,31.2,12
	c0.1,0,0.2,0.1,0.4,0.1c1,0.2,1.9,0.4,2.9,0.6c0.6,0.1,1.2,0.2,1.7,0.4c0.4,0.1,0.8,0.2,1.2,0.2c0,0,0,0,0,0
	c56.3,10.9,130.6-2.1,130.6-2.1s16,12,35,16c34,67,48,48,48,48s12,13,21-1c18,1,17-10,1-48c1.3,1.6,2.6,3,3.9,4.4l0.1,0.3
	c0-0.1-0.1-0.2-0.1-0.2c16.6,17.5,31.8,17.2,32.1,11.6c0.8-12.4-30.8-48.7-60.4-71h236.7c26.9,0,48.6-21.8,48.7-48.7V702h342.6
	c-12.6,4.3-34.6,12.6-66.6,27c-62,28-98,106-94,112s16,1,32-19c-14,52,0,48,9,47c9.2,13.2,21-3,21-3s16,15,41-55
	c11.4-5.4,21.8-12.4,31-21c0,0,11.6-0.7,29.1-2.9l0,0c1.7-0.2,3.5-0.4,5.3-0.7c4.4-0.6,8.8-1.2,13.2-1.9c0.6-0.1,1.2-0.2,1.7-0.3
	c1.1-0.2,2.3-0.4,3.4-0.5c0.8-0.1,1.7-0.3,2.5-0.4c0.2,0,0.4-0.1,0.6-0.1c0.5-0.1,1.1-0.2,1.6-0.3c0.2,0,0.4-0.1,0.5-0.1
	c0.9-0.2,1.8-0.3,2.8-0.5c0.3,0,0.6-0.1,0.9-0.2c0.5-0.1,1-0.2,1.4-0.3c0.3-0.1,0.7-0.1,1-0.2c0.8-0.1,1.5-0.3,2.3-0.4
	c0.4-0.1,0.8-0.1,1.1-0.2c0.5-0.1,0.9-0.2,1.4-0.3c0.4-0.1,0.8-0.1,1.2-0.2c0.6-0.1,1.3-0.2,1.9-0.4c0.5-0.1,1-0.2,1.5-0.3
	c0.4-0.1,0.9-0.2,1.3-0.3c0.4-0.1,0.9-0.2,1.3-0.3c0.4-0.1,0.8-0.2,1.2-0.2c0.7-0.1,1.5-0.3,2.2-0.5c0.4-0.1,0.8-0.2,1.2-0.3
	c0.4-0.1,0.9-0.2,1.4-0.3c0.4-0.1,0.8-0.2,1.2-0.3c0.7-0.2,1.5-0.3,2.2-0.5c0.4-0.1,0.8-0.2,1.2-0.3c0.5-0.1,1-0.2,1.4-0.3
	c0.4-0.1,0.8-0.2,1.2-0.3c0.7-0.2,1.5-0.3,2.2-0.5c0.4-0.1,0.8-0.2,1.2-0.3c0.5-0.1,1-0.2,1.5-0.4c0.4-0.1,0.8-0.2,1.2-0.3
	c0.6-0.1,1.2-0.3,1.8-0.4c0.5-0.1,1-0.3,1.5-0.4c0.5-0.1,1-0.3,1.6-0.4c0.4-0.1,0.8-0.2,1.2-0.3c0.5-0.1,1.1-0.3,1.6-0.4
	c0.5-0.1,1.1-0.3,1.6-0.4c0.6-0.2,1.1-0.3,1.7-0.5c0.4-0.1,0.8-0.2,1.2-0.3c0.5-0.1,1-0.3,1.5-0.4c0.5-0.1,0.9-0.3,1.4-0.4
	c0.7-0.2,1.3-0.4,2-0.6c0.4-0.1,0.8-0.2,1.2-0.4c0.5-0.1,1-0.3,1.4-0.4c0.4-0.1,0.8-0.2,1.1-0.3c0.7-0.2,1.5-0.5,2.2-0.7
	c0.4-0.1,0.8-0.2,1.2-0.4c0.5-0.2,0.9-0.3,1.4-0.5c0.4-0.1,0.8-0.2,1.2-0.4c0.7-0.2,1.5-0.5,2.2-0.7c0.4-0.1,0.7-0.3,1.1-0.4
	c0.5-0.2,0.9-0.3,1.4-0.5c0.4-0.1,0.8-0.3,1.2-0.4c0.6-0.2,1.3-0.4,1.9-0.7c0.4-0.2,0.9-0.3,1.3-0.5c0.5-0.2,0.9-0.3,1.4-0.5
	c0.4-0.1,0.8-0.3,1.2-0.4c0.5-0.2,1-0.4,1.6-0.6c0.5-0.2,1-0.4,1.5-0.6c0.5-0.2,1-0.4,1.5-0.6c0.4-0.1,0.7-0.3,1.1-0.4
	c0.5-0.2,1-0.4,1.4-0.6c0.5-0.2,0.9-0.4,1.4-0.6c0.5-0.2,1.1-0.5,1.6-0.7c0.4-0.2,0.7-0.3,1.1-0.5c0.4-0.2,0.9-0.4,1.3-0.6
	c0.3-0.1,0.7-0.3,1-0.4c0.7-0.3,1.3-0.6,2-0.9c0.3-0.2,0.7-0.3,1-0.5c0.4-0.2,0.9-0.4,1.3-0.6c0.3-0.2,0.6-0.3,0.9-0.5
	c0.7-0.3,1.3-0.7,1.9-1c0.3-0.2,0.6-0.3,0.9-0.5c0.4-0.2,0.9-0.4,1.3-0.7c0.3-0.2,0.6-0.3,0.9-0.5c0.6-0.3,1.3-0.7,1.9-1
	c0.3-0.2,0.5-0.3,0.8-0.5c0.4-0.2,0.9-0.5,1.3-0.7c0.3-0.2,0.6-0.3,0.8-0.5c0.6-0.4,1.2-0.7,1.8-1.1c0.2-0.1,0.4-0.3,0.7-0.4
	c0.4-0.3,0.9-0.6,1.3-0.8c0.3-0.2,0.5-0.3,0.8-0.5c0.5-0.3,1-0.6,1.5-1c0.3-0.2,0.5-0.4,0.8-0.5c0.5-0.3,0.9-0.6,1.4-1
	c0.2-0.2,0.5-0.3,0.7-0.5c0.4-0.3,0.9-0.6,1.3-1c0.2-0.1,0.3-0.3,0.5-0.4c0.5-0.4,1.1-0.8,1.6-1.2c0.2-0.2,0.4-0.3,0.6-0.5
	c0.4-0.3,0.8-0.7,1.2-1c0.2-0.1,0.3-0.3,0.5-0.4c0.5-0.4,1-0.9,1.5-1.3c0.2-0.2,0.3-0.3,0.5-0.5c0.4-0.3,0.7-0.7,1.1-1
	c0.2-0.1,0.3-0.3,0.5-0.4c0.5-0.5,0.9-0.9,1.4-1.4c0.1-0.1,0.3-0.3,0.4-0.4c0.2-0.2,0.4-0.5,0.6-0.7c0,0,0,0,0,0
	c0,0,0.1-0.1,0.1-0.1c0.1-0.1,0.2-0.2,0.3-0.3c0.1-0.2,0.3-0.3,0.4-0.5c0.3-0.3,0.6-0.7,0.8-1c0.2-0.2,0.4-0.5,0.6-0.7
	c0,0,0.1-0.1,0.1-0.1c0.3-0.4,0.7-0.8,1-1.3c0.1-0.2,0.2-0.3,0.3-0.5c0,0,0.1-0.1,0.1-0.1c0,0,0.1-0.1,0.1-0.1
	c0.3-0.4,0.6-0.9,0.9-1.3c0.1-0.1,0.1-0.2,0.2-0.2c0.3-0.5,0.6-1,0.9-1.4c0.1-0.2,0.2-0.3,0.3-0.5c0.3-0.6,0.7-1.1,1-1.7
	c0.4-0.8,0.9-1.6,1.3-2.4c0.1-0.2,0.2-0.4,0.3-0.6c0.4-0.8,0.8-1.7,1.2-2.5c0,0,0,0,0-0.1c0.4-0.8,0.8-1.7,1.1-2.6
	c0.1-0.2,0.2-0.4,0.2-0.6c0.4-0.9,0.7-1.8,1.1-2.8c0-0.1,0-0.1,0.1-0.2c0.3-0.9,0.6-1.8,1-2.7c0.1-0.2,0.1-0.4,0.2-0.6
	c0.3-1,0.6-2,0.9-3c0-0.1,0.1-0.2,0.1-0.3c0.3-0.9,0.5-1.9,0.8-2.8c0.1-0.2,0.1-0.4,0.2-0.6c0-0.1,0.1-0.3,0.1-0.4
	c26.8-0.1,48.5-21.9,48.5-48.7V229.7C1399,202.8,1377.2,181,1350.3,181z M1380.4,196.6c9,8.2,14.6,20,14.6,33.1c0,0,0,0,0,0
	C1395,216.6,1389.4,204.8,1380.4,196.6c-1.1-1-2.2-1.9-3.3-2.7C1378.2,194.7,1379.3,195.6,1380.4,196.6z M1367.7,188.5
	c1.3,0.6,2.6,1.2,3.9,1.9c1.3,0.7,2.5,1.4,3.7,2.2c-1.2-0.8-2.4-1.5-3.7-2.2S1369.1,189.1,1367.7,188.5c-2-0.8-4.1-1.6-6.2-2.1
	C1363.6,187,1365.7,187.7,1367.7,188.5z M1357.1,185.5c-1.5-0.2-3-0.4-4.5-0.5C1354.2,185.1,1355.7,185.3,1357.1,185.5z"/>
</svg>
