<?xml version="1.0" encoding="utf-8"?>
<!-- Generator: Adobe Illustrator 22.0.1, SVG Export Plug-In . SVG Version: 6.00 Build 0)  -->
<svg version="1.1" id="Layer_1" xmlns="http://www.w3.org/2000/svg" xmlns:xlink="http://www.w3.org/1999/xlink" x="0px" y="0px"
	 viewBox="0 0 1600 1200" style="enable-background:new 0 0 1600 1200;" xml:space="preserve">
<style type="text/css">
	.st0{fill:#30242A;}
</style>
<title>wfh_3</title>
<g>
	<path class="st0" d="M732.3,477.6H623.5L590.6,391c-3.7-9.7-14.5-14.6-24.2-10.9l-141.9,53.9c-9.7,3.7-14.6,14.5-10.9,24.2
		l7.4,19.4H224.3v279.8c-18.4,3.3-41.5,10.9-55,28.5c-6.1,8-10.2,18-11,30.6c-2.3,36.4,15.6,87.6,37.2,130.8l0,0
		c9.1,18,18.8,34.7,28,48.2h-29.2v30h30h24.5c50.9,41.3,169.2,13.7,169.2,13.7s14.3,11.3,33.3,15.3c34,67,52.7,43.7,52.7,43.7
		s12,13,21-1c18,1,17-10,1-48c18,22,35.9,22.3,36.3,16.3c0.5-7.6-9.4-23.5-24.3-40h194.3h30v-30h-30V477.6z"/>
	<path class="st0" d="M1430,518.6c16.7-17.4,14-47.2-6.1-66.5c-9.3-8.9-20.6-14-31.8-15.2c17.3-8.9,39.2-23.7,34.4-32
		c-5.6-9.6-31.1,11.9-44.8,26.7c0.2-1.3,0.5-2.7,0.6-4l-2.3,3.6c3.1-15.5,1.6-33.8-11.7-52V168.6h-508v177.7
		C829,313.6,772,361.5,809,408c14.2,17.8,31.4,24.5,49.7,25.1c0.5-0.8,1.1-1.6,1.6-2.3v2.4c-0.5,0-1.1,0-1.6,0
		C824.2,482.8,752,526.3,781,578c15.6,27.8,45.2,31.3,79.3,27.8v80.8h-30v30h30h458.5c13.4,7.8,27.9,14.5,42.5,18
		c101.3,17.5,65.1-122.7,29.7-204.7C1405.5,532.7,1420,529,1430,518.6z"/>
</g>
</svg>
