<?xml version="1.0" encoding="utf-8"?>
<!-- Generator: Adobe Illustrator 23.0.3, SVG Export Plug-In . SVG Version: 6.00 Build 0)  -->
<svg version="1.1" id="Layer_1" xmlns="http://www.w3.org/2000/svg" xmlns:xlink="http://www.w3.org/1999/xlink" x="0px" y="0px"
	 width="88.3px" height="28px" viewBox="0 0 88.3 28" style="enable-background:new 0 0 88.3 28;" xml:space="preserve">
<style type="text/css">
	.st0{fill:#DF5646;}
	.st1{fill:#FFFFFF;}
</style>
<g>
	<path class="st0" d="M15.5,13.9c-0.3,0.4-0.7,0.6-1.3,0.8C13.7,14.9,13,15,12.3,15h-1.9v4.4H8.2V8.3h4.1c1.3,0,2.3,0.3,3,1
		c0.7,0.6,1,1.4,1,2.3S16.1,13.2,15.5,13.9z M10.5,13.3h1.9c0.6,0,1-0.1,1.3-0.4c0.3-0.3,0.4-0.7,0.4-1.2s-0.1-0.9-0.4-1.2
		s-0.7-0.4-1.3-0.4h-1.9V13.3z"/>
	<path class="st0" d="M20.3,15.1v4.4H18V8.3h4.1c1.3,0,2.3,0.3,3,1c0.7,0.6,1,1.4,1,2.4c0,0.7-0.2,1.4-0.6,2s-1.1,1-2,1.2l2.8,4.6
		h-2.7L21,15.1H20.3z M20.3,10.1v3.3h1.9c0.6,0,1-0.1,1.3-0.4c0.3-0.3,0.4-0.7,0.4-1.2s-0.1-0.9-0.4-1.2s-0.7-0.4-1.3-0.4h-1.9V10.1
		z"/>
	<path class="st0" d="M33.5,19.6c-1.6,0-3-0.5-4.1-1.6s-1.6-2.4-1.6-4.1s0.6-3,1.7-4.1s2.5-1.6,4.1-1.6s3,0.5,4.1,1.6
		s1.6,2.4,1.6,4.1s-0.5,3-1.6,4.1C36.5,19.1,35.1,19.6,33.5,19.6z M36,16.5c0.6-0.7,0.9-1.6,0.9-2.7s-0.3-2-0.9-2.7
		c-0.6-0.7-1.5-1-2.5-1s-1.8,0.3-2.5,1c-0.6,0.7-1,1.6-1,2.7s0.3,2,1,2.7c0.6,0.7,1.5,1,2.5,1S35.3,17.2,36,16.5z"/>
</g>
<path class="st0" d="M70.7,14.9l1.7,1.7l0,0c0.2-0.2,0.4-0.5,0.7-0.6c0.2-0.1,0.4-0.2,0.6-0.3c0.3-0.1,0.5,0,0.7,0l0.1-0.1
	c0.2-0.2,0.5-0.5,0.8-0.6s0.7-0.1,1-0.1c0.1,0,0.2,0,0.3,0l0.4-0.4c0.7-0.7,1.8-0.7,2.4,0l0.1,0.1l1.5,1.8c0.3,0.3,0.5,0.7,0.6,1.1
	l0.6,2.3c0.1,0.4,0,0.9-0.3,1.3L78,25c-0.3,0.3-0.9,0.5-1.3,0.3l-2.2-0.7l-4-1c-0.7-0.2-1.1-0.9-0.9-1.6c0.1-0.6,0.7-1,1.3-1h1.9
	l-4-4c-0.6-0.6-0.6-1.5,0-2.1C69.2,14.3,70.1,14.3,70.7,14.9z"/>
<g>
	<path class="st1" d="M43.8,19.4h-2.3V8.1h2.3v5l4.1-5h3l-4.9,5.7l4.9,5.6h-3l-4.1-5V19.4z"/>
	<path class="st1" d="M52.4,19.4V8.1h2.3v11.3H52.4z"/>
	<path class="st1" d="M56.5,9.9V8.1h8.4v1.7h-3.1v9.5h-2.3V9.9H56.5z"/>
</g>
</svg>
